<svg width="213" height="71" viewBox="0 0 213 71" fill="none" xmlns="http://www.w3.org/2000/svg">
<path fill-rule="evenodd" clip-rule="evenodd" d="M85.8111 15.8568C85.8915 15.8507 85.9718 15.8446 86.046 15.8446C91.4378 15.8446 95.8403 20.1456 95.8403 25.473C95.8403 30.8003 91.4626 35.1258 86.0708 35.1258C80.679 35.1258 76.3013 30.8003 76.3013 25.473C76.3013 25.1308 76.3013 24.7643 76.3507 24.4221V10.4439C76.3507 7.34033 79.0219 4.79883 82.3361 4.79883C84.661 4.79883 86.7386 6.04514 87.7526 8.04902C88.7172 9.95514 88.4946 12.0812 87.1838 13.7918L85.5761 15.869C85.6503 15.869 85.7307 15.8629 85.8111 15.8568ZM82.3361 8.39114C81.0253 8.39114 79.9617 9.31977 79.9617 10.4683V17.2375L84.3147 11.6169C84.9578 10.7616 84.661 9.95514 84.5126 9.63745C84.2158 9.02652 83.4738 8.39114 82.3361 8.39114ZM80.0112 25.4974C80.0112 28.7965 82.7318 31.4602 86.046 31.4602C89.385 31.4602 92.0809 28.7965 92.0809 25.4974C92.0809 22.1983 89.385 19.5346 86.046 19.5346C82.7071 19.5346 80.0112 22.2228 80.0112 25.4974Z" fill="white"/>
<path fill-rule="evenodd" clip-rule="evenodd" d="M45.3603 15.8446C39.9685 15.8446 35.5908 20.1701 35.5908 25.4975C35.5908 30.8248 39.9685 35.1503 45.3603 35.1503H55.1298V25.4975C55.1298 20.1701 50.7521 15.8446 45.3603 15.8446ZM51.3952 31.4602H45.3603C42.0461 31.4602 39.3255 28.7965 39.3255 25.4975C39.3255 22.2228 42.0214 19.5347 45.3603 19.5347C48.6745 19.5347 51.3952 22.1984 51.3952 25.4975V31.4602Z" fill="white"/>
<path fill-rule="evenodd" clip-rule="evenodd" d="M148.373 15.8446C142.981 15.8446 138.604 20.1701 138.604 25.4975C138.604 30.8248 142.981 35.1503 148.373 35.1503C153.765 35.1503 158.143 30.8248 158.143 25.4975C158.143 20.1701 153.765 15.8446 148.373 15.8446ZM148.373 31.4602C145.059 31.4602 142.338 28.7965 142.338 25.4975C142.338 22.2228 145.034 19.5347 148.373 19.5347C151.687 19.5347 154.408 22.1984 154.408 25.4975C154.408 28.7965 151.687 31.4602 148.373 31.4602Z" fill="white"/>
<path fill-rule="evenodd" clip-rule="evenodd" d="M96.6812 25.4975C96.6812 20.1701 101.059 15.8446 106.451 15.8446C111.842 15.8446 116.245 20.1701 116.245 25.4975V35.1503H106.451C101.059 35.1503 96.6812 30.8248 96.6812 25.4975ZM106.451 31.4602H112.485V25.4975C112.485 22.1984 109.765 19.5347 106.451 19.5347C103.112 19.5347 100.416 22.2228 100.416 25.4975C100.416 28.7965 103.136 31.4602 106.451 31.4602Z" fill="white"/>
<path d="M72.616 16.1379C71.7998 16.1379 71.0825 16.6755 70.8352 17.4575C70.5384 18.435 69.8706 19.5591 68.7576 20.6344C66.9521 22.3695 64.4294 23.3958 61.5109 23.6402V17.7019C61.5109 16.6755 60.67 15.8446 59.6312 15.8446C58.5924 15.8446 57.7515 16.6755 57.7515 17.7019V33.0975C57.7515 34.1239 58.5924 34.9548 59.6312 34.9548C60.67 34.9548 61.5109 34.1239 61.5109 33.0975V27.3547C63.5142 27.2325 65.4187 26.7926 67.1005 26.0595C69.5243 27.2081 70.3653 30.2872 70.5879 33.1953C70.6621 34.1728 71.4782 34.9303 72.4676 34.9303C73.5558 34.9303 74.4215 34.0261 74.3473 32.9509C74.001 28.2345 72.4428 25.5219 70.6373 23.9579C70.7608 23.8481 70.8905 23.7382 71.0202 23.6284L71.0212 23.6276C71.1508 23.5177 71.2805 23.4079 71.404 23.2981C72.8633 21.9051 73.9021 20.2434 74.4462 18.5816C74.7925 17.3842 73.9021 16.1379 72.616 16.1379Z" fill="white"/>
<path d="M136.971 22.6382V33.0975C136.971 33.6107 136.748 34.075 136.427 34.4171C136.081 34.7592 135.611 34.9547 135.091 34.9547C134.052 34.9547 133.211 34.1239 133.211 33.0975V22.6382C133.211 20.952 131.826 19.5835 130.095 19.5835H125.198C123.491 19.5835 122.082 20.952 122.082 22.6382V33.0975C122.082 34.1239 121.241 34.9547 120.202 34.9547C119.163 34.9547 118.322 34.1239 118.322 33.0975V22.6382C118.322 20.6344 119.188 18.8504 120.573 17.6041C121.785 16.5289 123.393 15.869 125.173 15.869H130.07C131.826 15.869 133.434 16.5289 134.671 17.6041C136.105 18.8504 136.971 20.6344 136.971 22.6382Z" fill="white"/>
<path d="M212.159 31.949C212.431 31.6558 213.47 30.5072 212.728 29.3098C212.481 28.9188 212.085 28.6255 211.664 28.5033C211.649 28.4982 211.635 28.4931 211.621 28.4883C211.568 28.4698 211.525 28.4545 211.467 28.4545C210.799 28.3323 210.082 28.6255 209.661 29.1631L209.608 29.2257C209.508 29.3452 209.42 29.4499 209.315 29.5541C208.202 30.7271 206.644 31.4603 204.888 31.4603C201.623 31.4603 198.952 28.8943 198.853 25.693C198.754 22.4184 201.524 19.5836 204.838 19.5836C206.025 19.5592 207.114 19.9013 208.053 20.4634C208.251 20.5856 208.573 20.8055 208.771 20.9766C208.919 21.0988 209.092 21.1965 209.29 21.221C209.463 21.2454 209.636 21.2698 209.809 21.2454C210.725 21.1721 211.467 20.4878 211.615 19.6081C211.64 19.5348 211.64 19.4859 211.64 19.437C211.689 18.8261 211.392 18.264 210.922 17.8975C210.7 17.702 210.453 17.5309 210.205 17.3843C208.548 16.3335 206.545 15.747 204.418 15.8447C199.521 16.0646 195.514 19.9502 195.143 24.7644C194.722 30.4095 199.249 35.1503 204.888 35.1503C207.781 35.1503 210.378 33.9285 212.159 31.949Z" fill="white"/>
<path d="M159.132 35.3212C158.86 35.3212 158.588 35.2723 158.34 35.1501C157.425 34.7103 157.03 33.6106 157.475 32.7064L164.697 17.7995C164.994 17.1886 165.637 16.7731 166.329 16.7487C167.022 16.7243 167.665 17.0908 168.011 17.7018L176.049 32.3643C176.544 33.244 176.198 34.3681 175.307 34.8569C174.417 35.3456 173.279 35.0035 172.784 34.1238L166.453 22.6381L160.789 34.2948C160.492 34.9546 159.824 35.3212 159.132 35.3212Z" fill="white"/>
<path d="M179.116 35.2235C179.314 35.2968 179.512 35.3212 179.709 35.3212C180.278 35.3212 180.822 35.0768 181.193 34.6125L189.479 23.9822V33.5128C189.479 34.5148 190.32 35.3457 191.334 35.3457C192.348 35.3457 193.189 34.5148 193.189 33.5128V18.606C193.189 17.824 192.67 17.1153 191.928 16.8709C191.161 16.6021 190.345 16.8709 189.85 17.4818L181.564 28.1122V18.606C181.564 17.604 180.724 16.7732 179.709 16.7732C178.695 16.7732 177.854 17.604 177.854 18.606V33.4884C177.854 34.2704 178.374 34.9791 179.116 35.2235Z" fill="white"/>
<path d="M21.3693 3.89459C21.3074 3.89459 21.2456 3.88848 21.1838 3.88237C21.1219 3.87626 21.0601 3.87015 20.9983 3.87015C20.8746 3.84571 20.7509 3.79684 20.6273 3.74796C20.5036 3.69909 20.4047 3.65021 20.281 3.5769C20.1821 3.50359 20.0831 3.43027 19.9842 3.33252C19.8853 3.23477 19.8111 3.13702 19.7369 3.03927C19.6627 2.94152 19.6132 2.81934 19.5638 2.69715C19.5143 2.57497 19.4648 2.45276 19.4401 2.33059C19.4154 2.2084 19.3906 2.08621 19.3906 1.93959C19.3906 1.4264 19.5885 0.937648 19.9595 0.571085C20.4047 0.13121 21.0972 -0.0887274 21.7155 0.0334602C21.7774 0.0456789 21.8392 0.064007 21.901 0.0823352C21.9629 0.100663 22.0247 0.118991 22.0865 0.13121C22.1483 0.155648 22.204 0.186195 22.2596 0.216742C22.3153 0.247288 22.3709 0.277835 22.4328 0.302273C22.5317 0.375577 22.6307 0.448909 22.7296 0.546648C23.1006 0.913211 23.2984 1.40196 23.2984 1.91515C23.2984 2.03734 23.2984 2.15952 23.249 2.30615C23.2242 2.42834 23.1995 2.55052 23.1253 2.67271C23.0758 2.7949 23.0264 2.89265 22.9522 3.01484C22.878 3.11259 22.8038 3.21034 22.7048 3.30809C22.6059 3.40583 22.507 3.47913 22.4081 3.55244C22.3091 3.62575 22.1854 3.67465 22.0618 3.72352C21.9999 3.74796 21.9381 3.76629 21.8763 3.78462C21.8145 3.80295 21.7526 3.82127 21.6908 3.84571C21.6166 3.89459 21.4929 3.89459 21.3693 3.89459Z" fill="white"/>
<path d="M22.136 30.9958C21.1467 31.4356 20.7262 32.5842 21.1961 33.5617C21.5424 34.2704 22.2349 34.6858 22.9522 34.6858C23.249 34.6858 23.521 34.6125 23.7931 34.4903C24.7824 34.0504 25.2029 32.9019 24.733 31.9244C24.2878 30.9469 23.1253 30.5314 22.136 30.9958Z" fill="white"/>
<path d="M19.3659 27.9899C19.168 26.9391 19.8606 25.9372 20.9241 25.7417C21.9876 25.5462 23.0017 26.2304 23.1995 27.2813C23.3974 28.3321 22.7049 29.334 21.6413 29.5295C21.5177 29.5539 21.394 29.5539 21.2703 29.5539C20.38 29.5539 19.539 28.9186 19.3659 27.9899Z" fill="white"/>
<path d="M18.9949 22.1249C18.9207 23.2002 19.7369 24.1044 20.8252 24.1777H20.9488C21.9876 24.1777 22.8533 23.3957 22.9027 22.3693C22.9769 21.2941 22.1607 20.3899 21.0725 20.3166C19.9842 20.2433 19.0691 21.0497 18.9949 22.1249Z" fill="white"/>
<path d="M21.3693 18.8014C20.3305 18.4838 19.7616 17.3841 20.1079 16.3577C20.4294 15.3313 21.5424 14.7937 22.5812 15.1114C23.62 15.4291 24.1888 16.5288 23.8426 17.5551C23.5705 18.3616 22.8038 18.8992 21.9876 18.8992C21.765 18.8748 21.5671 18.8503 21.3693 18.8014Z" fill="white"/>
<path d="M22.6059 11.0303C22.0371 11.9345 22.3091 13.1319 23.2242 13.694C23.5458 13.9139 23.9168 14.0117 24.263 13.9873C24.9061 13.9873 25.5491 13.6696 25.9201 13.0831C26.489 12.1789 26.2169 10.9814 25.3018 10.4194C24.3867 9.85731 23.1748 10.1261 22.6059 11.0303Z" fill="white"/>
<path d="M26.2911 9.24637C25.5491 8.46437 25.5739 7.2425 26.3653 6.50937C27.1568 5.77625 28.3934 5.80068 29.1354 6.58268C29.8774 7.36469 29.8527 8.58656 29.0612 9.31969C28.6902 9.66181 28.1956 9.85731 27.7256 9.85731C27.2063 9.83287 26.6869 9.63737 26.2911 9.24637Z" fill="white"/>
<path d="M31.1388 3.01481C30.1989 3.55243 29.8774 4.72543 30.3968 5.65406C30.7678 6.28943 31.4356 6.63156 32.1034 6.63156C32.4496 6.63156 32.7712 6.55825 33.068 6.38718C34.0078 5.84956 34.3293 4.67656 33.8099 3.74793C33.2658 2.81931 32.0786 2.50162 31.1388 3.01481Z" fill="white"/>
<path d="M35.2692 3.18587C34.9971 2.15949 35.6154 1.10868 36.6542 0.815432C37.693 0.546619 38.7565 1.15756 39.0533 2.18393C39.3254 3.21031 38.7071 4.28556 37.6683 4.55437C37.4952 4.60325 37.322 4.62768 37.1736 4.62768C36.308 4.62768 35.5165 4.04118 35.2692 3.18587Z" fill="white"/>
<path d="M46.0775 2.08618C45.8549 3.137 46.4979 4.16337 47.5615 4.40775C47.7099 4.43218 47.8582 4.45662 48.0066 4.45662C48.897 4.45662 49.7132 3.84568 49.9111 2.9415C50.1337 1.89068 49.4906 0.864307 48.4271 0.619932C47.3636 0.399994 46.3248 1.03537 46.0775 2.08618Z" fill="white"/>
<path d="M40.6115 1.98843C40.6115 0.913182 41.4772 0.0334315 42.5407 0.0334315C43.6289 0.0334315 44.4946 0.888744 44.5193 1.93956C44.5193 3.01481 43.6536 3.87012 42.5901 3.89456H42.5654C41.5019 3.89456 40.6115 3.03925 40.6115 1.98843Z" fill="white"/>
<path d="M52.681 6.38726C52.8047 6.4117 52.9284 6.43614 53.052 6.43614C53.1757 6.43614 53.3241 6.4117 53.4478 6.38726C53.5714 6.36282 53.6951 6.31395 53.8188 6.26507C53.9424 6.2162 54.0661 6.16732 54.165 6.09401C54.264 6.0207 54.3629 5.94739 54.4618 5.84964C54.8328 5.48307 55.0307 4.99432 55.0307 4.48114C55.0307 3.96795 54.8328 3.4792 54.4618 3.11264C54.3629 3.01489 54.264 2.94157 54.165 2.86826C54.0414 2.79495 53.9424 2.74607 53.8188 2.6972C53.6951 2.62388 53.5714 2.59945 53.4478 2.57501C53.2004 2.52613 52.9284 2.52613 52.681 2.57501C52.5574 2.59945 52.4337 2.64832 52.3101 2.6972C52.1864 2.74607 52.0627 2.79495 51.9638 2.86826C51.8649 2.94157 51.7659 3.01489 51.667 3.11264C51.296 3.4792 51.0981 3.96795 51.0981 4.48114C51.0981 4.99432 51.296 5.48307 51.667 5.84964C51.7659 5.94739 51.8649 6.0207 51.9638 6.09401C52.0875 6.16732 52.1864 6.2162 52.3101 6.26507C52.4337 6.33839 52.5574 6.36282 52.681 6.38726Z" fill="white"/>
<path d="M25.5243 39.2067C25.648 39.2311 25.7716 39.2556 25.8953 39.2556C26.019 39.2556 26.1674 39.2311 26.291 39.2067C26.4147 39.2067 26.5384 39.1578 26.662 39.1089C26.7857 39.0601 26.9094 39.0112 27.0083 38.9379C27.1072 38.8646 27.2062 38.7912 27.3051 38.6935C27.404 38.5957 27.4782 38.498 27.5524 38.4002C27.6266 38.2781 27.6761 38.1803 27.7255 38.0581C27.775 37.9359 27.8245 37.8137 27.8492 37.6916C27.8739 37.5694 27.8987 37.4472 27.8987 37.325C27.8987 37.2028 27.8739 37.0806 27.8492 36.9584C27.8245 36.8973 27.8059 36.8362 27.7874 36.7751C27.7688 36.7141 27.7503 36.653 27.7255 36.5919C27.6761 36.4697 27.6266 36.3475 27.5524 36.2497C27.4782 36.152 27.404 36.0542 27.3051 35.9565C27.2062 35.8588 27.1072 35.7854 27.0083 35.7121C26.8846 35.6388 26.7857 35.5899 26.662 35.5411C26.5384 35.4922 26.4147 35.4433 26.291 35.4189C25.648 35.2967 24.9555 35.5166 24.5103 35.9565C24.1393 36.3231 23.9414 36.8118 23.9414 37.325C23.9414 37.4472 23.9661 37.5694 23.9909 37.6916C24.0156 37.8137 24.0403 37.9359 24.0898 38.0581C24.1393 38.1803 24.1887 38.3025 24.2629 38.4002C24.3371 38.498 24.4113 38.5957 24.5103 38.6935C24.6092 38.7912 24.7081 38.8646 24.8071 38.9379C24.9307 39.0112 25.0297 39.0601 25.1533 39.1089C25.277 39.1578 25.4007 39.1823 25.5243 39.2067Z" fill="white"/>
<path d="M3.67302 52.5864C3.73485 52.5926 3.79669 52.5987 3.85852 52.5987C3.98218 52.5987 4.10585 52.5742 4.18005 52.5498C4.30371 52.5254 4.42737 52.4765 4.55104 52.4276C4.6747 52.3787 4.79837 52.3299 4.8973 52.2565C4.99623 52.1832 5.09516 52.1099 5.1941 52.0122C5.29303 51.9144 5.36723 51.8167 5.44142 51.7189C5.51562 51.5967 5.56509 51.499 5.61456 51.3768C5.68875 51.2546 5.71349 51.1324 5.73822 51.0102L5.74897 50.9475C5.76964 50.828 5.78769 50.7236 5.78769 50.6192C5.78769 50.106 5.58982 49.6173 5.21883 49.2507C5.1199 49.153 5.02097 49.0797 4.92203 49.0064C4.8602 48.9819 4.80456 48.9514 4.74891 48.9208C4.69326 48.8903 4.63761 48.8597 4.57577 48.8353C4.51398 48.8231 4.45219 48.8048 4.39039 48.7865C4.32856 48.7681 4.26661 48.7498 4.20478 48.7375C3.58646 48.6154 2.89393 48.8353 2.44874 49.2752C2.07775 49.6417 1.87988 50.1305 1.87988 50.6437C1.87988 50.7903 1.90462 50.9125 1.92935 51.0347C1.95408 51.1569 2.00355 51.279 2.05301 51.4012C2.10248 51.5234 2.15195 51.6456 2.22614 51.7434C2.30034 51.8411 2.37454 51.9389 2.47347 52.0366C2.57239 52.1343 2.67131 52.2076 2.77022 52.2809C2.83191 52.3053 2.88749 52.3358 2.94301 52.3663C2.99861 52.3968 3.05475 52.4276 3.11653 52.452C3.24017 52.5009 3.36388 52.5498 3.48752 52.5742C3.54932 52.5742 3.61123 52.5803 3.67302 52.5864Z" fill="white"/>
<path d="M35.4174 68.996C35.3679 70.0713 36.2088 70.951 37.2971 70.9999H37.3713C38.41 70.9999 39.2757 70.1934 39.3252 69.1426C39.3746 68.0674 38.5337 67.1876 37.4455 67.1388C36.3572 67.0899 35.4668 67.9208 35.4174 68.996Z" fill="white"/>
<path d="M41.0812 69.0938C41.007 68.0185 41.7985 67.0899 42.862 67.0166C43.9502 66.9188 44.8901 67.7252 44.9643 68.7761C45.0632 69.8513 44.247 70.7799 43.1835 70.8532H43.0351C42.0211 70.8777 41.1801 70.1201 41.0812 69.0938Z" fill="white"/>
<path d="M29.803 68.1407C29.6051 69.2159 30.3224 70.1934 31.3859 70.3889C31.4848 70.4134 31.6085 70.4378 31.7074 70.4134C32.6473 70.4134 33.4635 69.7536 33.6366 68.8005C33.8345 67.7497 33.1172 66.7477 32.0537 66.5767C30.9902 66.3812 29.9761 67.0899 29.803 68.1407Z" fill="white"/>
<path d="M46.745 68.5561C46.5224 67.5053 47.1902 66.4789 48.2538 66.259C49.3173 66.0391 50.3561 66.6989 50.5786 67.7497C50.8012 68.8005 50.1335 69.8269 49.0699 70.0468L49.0145 70.0561C48.8898 70.0771 48.779 70.0957 48.6495 70.0957C47.7591 70.0713 46.9429 69.4603 46.745 68.5561Z" fill="white"/>
<path d="M24.3123 66.6011C23.9907 67.6031 24.5596 68.7028 25.5984 69.0204C25.7963 69.0693 25.9941 69.0938 26.192 69.0938C27.0082 69.0938 27.7749 68.5806 28.0469 67.7497C28.3685 66.7478 27.7996 65.6481 26.7608 65.3304C25.7468 65.0127 24.6338 65.5747 24.3123 66.6011Z" fill="white"/>
<path d="M52.2852 67.2365C51.8895 66.2346 52.3842 65.1349 53.3982 64.7439C54.4123 64.3529 55.55 64.8416 55.921 65.8436C56.3167 66.8455 55.822 67.9696 54.808 68.3362C54.5854 68.4339 54.3381 68.4584 54.0907 68.4584C53.324 68.4584 52.582 67.9941 52.2852 67.2365Z" fill="white"/>
<path d="M19.1184 64.304C18.6732 65.2571 19.0936 66.4056 20.0582 66.8699C20.3303 66.9921 20.6271 67.041 20.8744 67.041C21.6164 67.041 22.3336 66.65 22.6552 65.9413C23.1004 64.9883 22.6799 63.8397 21.7153 63.3754C20.7507 62.9355 19.5883 63.3265 19.1184 64.304Z" fill="white"/>
<path d="M57.5286 65.0616C56.9597 64.1574 57.2318 62.9599 58.1469 62.3979C59.062 61.8358 60.274 62.1046 60.8428 63.0088C61.4117 63.913 61.1396 65.1104 60.2245 65.6725C59.903 65.868 59.532 65.9657 59.1857 65.9657C58.5427 65.9657 57.8996 65.6481 57.5286 65.0616Z" fill="white"/>
<path d="M14.3202 61.3226C13.7266 62.2268 13.9739 63.4242 14.889 64.0107C15.2106 64.2062 15.5816 64.3284 15.9525 64.3284C16.5956 64.3284 17.2139 64.0107 17.5849 63.4487C18.1785 62.5445 17.9312 61.3471 17.0161 60.7606C16.1257 60.1741 14.9138 60.4184 14.3202 61.3226Z" fill="white"/>
<path d="M62.2279 61.9091C61.4611 61.1516 61.4611 59.9297 62.2031 59.1721C62.9698 58.4146 64.2065 58.4146 64.9732 59.1477C65.7399 59.9052 65.7399 61.1271 64.9732 61.8847C64.6022 62.2757 64.0828 62.4467 63.5882 62.4467C63.1182 62.4467 62.6236 62.2757 62.2279 61.9091Z" fill="white"/>
<path d="M9.91771 57.7792C9.20046 58.5856 9.29939 59.8075 10.1156 60.4917C10.4866 60.8094 10.9318 60.9561 11.4017 60.9805C11.9458 60.9805 12.4899 60.7361 12.8857 60.2962C13.6029 59.4654 13.504 58.2435 12.6878 57.5592C11.8469 56.875 10.6102 56.9727 9.91771 57.7792Z" fill="white"/>
<path d="M66.0862 57.7547C65.1711 57.1927 64.8743 56.0197 65.4184 55.0911C65.9873 54.1869 67.1744 53.8936 68.1143 54.4312C69.0294 54.9933 69.3262 56.1663 68.7821 57.0949C68.4111 57.7059 67.768 58.0236 67.1002 58.0236C66.754 58.048 66.4077 57.9502 66.0862 57.7547Z" fill="white"/>
<path d="M6.03464 53.6248C5.24319 54.3335 5.16899 55.5554 5.88624 56.3618C6.25724 56.8017 6.80136 57.0216 7.34549 56.9972C7.81541 56.9972 8.28534 56.8261 8.65633 56.5084C9.44779 55.7997 9.52198 54.5779 8.80473 53.7714C8.08747 52.9894 6.85083 52.9161 6.03464 53.6248Z" fill="white"/>
<path d="M69.1037 52.8673C69.2274 52.8917 69.3511 52.9161 69.4747 52.9161C69.5984 52.9161 69.7221 52.9161 69.821 52.8673C69.9446 52.8428 70.0683 52.8184 70.192 52.7695C70.3156 52.7206 70.4393 52.6718 70.5382 52.5984C70.6372 52.5251 70.7361 52.4518 70.835 52.3541C70.934 52.2563 71.0082 52.1586 71.0824 52.0608C71.1566 51.9386 71.206 51.8409 71.2555 51.7187C71.305 51.5965 71.3544 51.4743 71.3792 51.3521C71.4286 51.2299 71.4286 51.1078 71.4286 50.9856C71.4286 50.4724 71.2308 49.9836 70.8598 49.6171C70.7608 49.5193 70.6619 49.446 70.563 49.3727C70.5011 49.3483 70.4455 49.3177 70.3898 49.2872C70.3342 49.2566 70.2785 49.2261 70.2167 49.2016C70.093 49.1528 69.9694 49.1039 69.8457 49.0794C69.5984 49.0306 69.3263 49.0306 69.079 49.0794C68.9553 49.1039 68.8317 49.1528 68.708 49.2016C68.5843 49.2505 68.4607 49.2994 68.3617 49.3727C68.2628 49.446 68.1639 49.5193 68.065 49.6171C67.694 49.9836 67.4961 50.4724 67.4961 50.9856C67.4961 51.1078 67.5208 51.2299 67.5456 51.3521C67.5703 51.4743 67.6198 51.5965 67.6692 51.7187C67.7187 51.8409 67.7682 51.9631 67.8424 52.0608C67.9165 52.1586 67.9908 52.2563 68.0897 52.3541C68.1886 52.4518 68.2875 52.5251 68.3864 52.5984C68.4482 52.6228 68.5039 52.6534 68.5595 52.6839C68.6151 52.7144 68.6709 52.7451 68.7327 52.7695C68.7946 52.7817 68.8564 52.8001 68.9182 52.8184C68.9801 52.8367 69.0419 52.855 69.1037 52.8673Z" fill="white"/>
<path d="M29.3086 52.9896C28.344 52.5008 27.9483 51.3522 28.4429 50.3992C28.9376 49.4461 30.1 49.0551 31.0646 49.5439C32.0292 50.0326 32.4249 51.1812 31.9303 52.1342C31.584 52.8185 30.8915 53.2095 30.1742 53.2095C29.9022 53.2095 29.6054 53.1362 29.3086 52.9896Z" fill="white"/>
<path d="M23.5953 47.0512C22.9522 47.9066 23.1253 49.1284 23.991 49.7638C24.3372 50.0082 24.733 50.1304 25.1534 50.1304C25.7718 50.1304 26.3653 49.8616 26.7363 49.3484C27.3794 48.4931 27.2063 47.2712 26.3406 46.6358C25.475 46.0249 24.2383 46.1959 23.5953 47.0512Z" fill="white"/>
<path d="M19.2917 45.6339C18.5497 44.8519 18.5992 43.63 19.3907 42.8969C20.1821 42.1637 21.4188 42.2126 22.1607 42.9946C22.9027 43.7766 22.8533 44.9985 22.0618 45.7316C21.6908 46.0737 21.1962 46.2448 20.7262 46.2448C20.2068 46.2448 19.6875 46.0249 19.2917 45.6339Z" fill="white"/>
<path d="M16.0764 38.0338C15.1613 38.5959 14.8893 39.7933 15.4581 40.6975C15.8291 41.284 16.4474 41.6017 17.1152 41.6017C17.4615 41.6017 17.8325 41.5039 18.154 41.3084C19.0691 40.7464 19.3412 39.5489 18.7723 38.6447C18.2035 37.7406 16.9916 37.4717 16.0764 38.0338Z" fill="white"/>
<path d="M12.6138 35.1502C12.2181 34.1482 12.7128 33.0241 13.7268 32.6576C14.7409 32.2666 15.8539 32.7553 16.2496 33.7572C16.6453 34.7592 16.1506 35.8833 15.1366 36.2499C14.914 36.3476 14.6667 36.3721 14.4193 36.3721C13.6526 36.3965 12.9106 35.9322 12.6138 35.1502Z" fill="white"/>
<path d="M12.4407 26.9392C11.3772 27.1347 10.6847 28.1366 10.8825 29.1874C11.0557 30.1161 11.8719 30.7514 12.787 30.7514C12.9106 30.7514 13.0343 30.7514 13.158 30.727C14.2215 30.5315 14.914 29.5295 14.7161 28.4787C14.5183 27.4279 13.5042 26.7437 12.4407 26.9392Z" fill="white"/>
<path d="M12.2676 24.9353C11.1793 24.9353 10.3137 24.0555 10.3384 22.9803C10.3384 21.905 11.2288 21.0497 12.317 21.0742C13.4053 21.0742 14.2709 21.9539 14.2462 23.0292C14.2462 24.08 13.3558 24.9353 12.2676 24.9353Z" fill="white"/>
<path d="M11.0309 16.7732C10.8083 17.824 11.4761 18.8504 12.5396 19.0703C12.6076 19.0837 12.6755 19.0898 12.7517 19.0966C12.8141 19.1021 12.8821 19.1082 12.9601 19.1192C13.8505 19.1192 14.6667 18.4838 14.8645 17.5796C15.0871 16.5288 14.4193 15.5024 13.3558 15.2825C12.2923 15.0625 11.2535 15.7224 11.0309 16.7732Z" fill="white"/>
<path d="M13.9247 13.3764C12.9354 12.9609 12.4654 11.8124 12.8859 10.8349C13.3064 9.85735 14.4688 9.39304 15.4581 9.80848C16.4474 10.2239 16.9174 11.3725 16.4969 12.35C16.1754 13.0831 15.4581 13.523 14.6914 13.523C14.4441 13.523 14.1967 13.4741 13.9247 13.3764Z" fill="white"/>
<path d="M15.9281 5.36085C15.3345 6.2406 15.5571 7.43804 16.4474 8.04898C16.7937 8.26892 17.1647 8.3911 17.5604 8.36666C18.1787 8.36666 18.7971 8.07341 19.1681 7.53579C19.7617 6.65604 19.5391 5.4586 18.6487 4.84766C17.7583 4.26116 16.5464 4.4811 15.9281 5.36085Z" fill="white"/>
<path d="M34.3291 54.8712C34.7001 55.2377 35.1948 55.4332 35.7142 55.4332C36.2088 55.4332 36.7282 55.2133 37.0992 54.8467C37.4702 54.4802 37.6681 53.9914 37.6681 53.4782C37.6681 52.965 37.4702 52.4763 37.0992 52.1097C37.0003 52.012 36.9013 51.9387 36.8024 51.8654C36.7406 51.8409 36.6849 51.8104 36.6293 51.7798C36.5736 51.7493 36.518 51.7187 36.4561 51.6943C36.3943 51.6821 36.3325 51.6637 36.2706 51.6454C36.2088 51.6271 36.147 51.6088 36.0851 51.5965C35.4668 51.4744 34.7743 51.6943 34.3291 52.1342C33.9581 52.5007 33.7603 52.9895 33.7603 53.5027C33.7603 54.0159 33.9581 54.5046 34.3291 54.8712Z" fill="white"/>
<path d="M1.58291 26.6215C1.70657 26.646 1.83024 26.6704 1.9539 26.6704C2.04087 26.6704 2.12783 26.6583 2.24061 26.6427C2.28819 26.636 2.34039 26.6288 2.39909 26.6215C2.52276 26.6215 2.64642 26.5727 2.77009 26.5238C2.89375 26.4749 3.01742 26.426 3.11635 26.3527C3.21528 26.2794 3.31421 26.2061 3.41314 26.1084C3.78414 25.7418 3.982 25.253 3.982 24.7399C3.982 24.6177 3.95727 24.4955 3.93254 24.3733C3.9078 24.2511 3.85834 24.1289 3.80887 24.0067C3.75941 23.8845 3.70994 23.7624 3.63574 23.6646C3.56154 23.5669 3.48734 23.4691 3.38841 23.3714C3.28948 23.2736 3.19055 23.2003 3.09162 23.127C2.96795 23.0537 2.86902 23.0048 2.74536 22.9559C2.62169 22.907 2.49803 22.8826 2.37436 22.8582C2.12703 22.8093 1.85497 22.8093 1.60764 22.8582C1.48398 22.8826 1.36031 22.907 1.23665 22.9559C1.113 23.0048 0.989306 23.0537 0.890386 23.127C0.791454 23.2003 0.692522 23.2736 0.59359 23.3714C0.494659 23.4691 0.42046 23.5669 0.346261 23.6646C0.309162 23.7257 0.284429 23.7807 0.259696 23.8357C0.234965 23.8906 0.210227 23.9456 0.173131 24.0067C0.0989317 24.1289 0.0741988 24.2511 0.0494659 24.3733C0.0247333 24.4955 0 24.6177 0 24.7399C0 25.253 0.197863 25.7418 0.568857 26.1084C0.667789 26.2061 0.766721 26.2794 0.865653 26.3527C0.989317 26.426 1.08825 26.4749 1.21191 26.5238C1.33558 26.5727 1.45924 26.5971 1.58291 26.6215Z" fill="white"/>
<path d="M39.7703 58.9279C38.6821 58.9523 37.8412 59.8321 37.8659 60.9073C37.8906 61.9337 38.781 62.7646 39.8198 62.8134H39.8693C40.9575 62.7646 41.7984 61.8848 41.7737 60.8096C41.749 59.7343 40.8586 58.9034 39.7703 58.9279Z" fill="white"/>
<path d="M33.8097 62.398C32.7462 62.2269 32.0042 61.2494 32.1773 60.1986C32.3505 59.1478 33.3398 58.4147 34.4033 58.5858C35.4668 58.7568 36.2088 59.7343 36.0357 60.7851C35.8873 61.7382 35.0463 62.4224 34.1065 62.4224C34.057 62.4224 34.0076 62.4163 33.9581 62.4102C33.9086 62.4041 33.8592 62.398 33.8097 62.398Z" fill="white"/>
<path d="M45.0879 58.2436C44.0244 58.488 43.3566 59.5144 43.6039 60.5652C43.8018 61.4449 44.618 62.0559 45.5331 62.0803C45.6568 62.0803 45.8052 62.0559 45.9536 62.0314C47.0171 61.7871 47.6601 60.7607 47.4375 59.7099C47.1902 58.6591 46.1514 57.9992 45.0879 58.2436Z" fill="white"/>
<path d="M27.8985 60.9317C26.8845 60.5896 26.3404 59.4899 26.6866 58.4636C27.0329 57.4616 28.1459 56.924 29.1846 57.2661C30.1987 57.6082 30.7428 58.7079 30.3966 59.7343C30.1245 60.5407 29.3578 61.0295 28.5416 61.0295C28.3437 61.0295 28.1211 61.0051 27.8985 60.9317Z" fill="white"/>
<path d="M50.1829 56.6063C49.1936 57.0217 48.7484 58.1703 49.1688 59.1478C49.4904 59.8809 50.2076 60.3208 50.9744 60.3208C51.2217 60.3208 51.4937 60.2475 51.7411 60.1497C52.7304 59.7343 53.1756 58.5858 52.7551 57.6082C52.3347 56.6307 51.1722 56.1909 50.1829 56.6063Z" fill="white"/>
<path d="M22.3831 58.488C21.4432 57.9748 21.097 56.8018 21.6164 55.8487C22.1358 54.9201 23.3229 54.578 24.2875 55.0912C25.2274 55.6044 25.5736 56.7774 25.0542 57.7304C24.708 58.3658 24.0155 58.7324 23.3477 58.7324C23.0014 58.7324 22.6799 58.6591 22.3831 58.488Z" fill="white"/>
<path d="M16.9913 52.5008C16.3235 53.3561 16.4719 54.5536 17.3376 55.2134C17.6838 55.4822 18.1043 55.6288 18.5495 55.6288C19.1183 55.6288 19.6872 55.36 20.0829 54.8712C20.7507 54.0404 20.5776 52.8185 19.7367 52.1587C18.8957 51.4989 17.6591 51.6455 16.9913 52.5008Z" fill="white"/>
<path d="M12.8609 51.2301C12.1189 50.4481 12.1437 49.2262 12.9104 48.4931C13.7018 47.7599 14.9385 47.7844 15.6805 48.5419C16.4224 49.2995 16.3977 50.5458 15.631 51.2789C15.26 51.6455 14.7653 51.8166 14.2707 51.8166C13.7513 51.8166 13.2319 51.6211 12.8609 51.2301Z" fill="white"/>
<path d="M9.47249 43.9477C8.58211 44.5831 8.38424 45.8049 9.0273 46.6602C9.39829 47.1979 9.99189 47.4667 10.6102 47.4667C11.0059 47.4667 11.4017 47.3445 11.7479 47.1001C12.6383 46.4647 12.8362 45.2429 12.1931 44.3876C11.5748 43.5078 10.3381 43.3123 9.47249 43.9477Z" fill="white"/>
<path d="M5.83675 41.675C5.31736 40.7464 5.66362 39.5734 6.62821 39.0602C7.56806 38.547 8.75524 38.8891 9.27463 39.8177C9.79402 40.7464 9.44776 41.9438 8.50791 42.4326C8.21111 42.6036 7.88959 42.6769 7.56806 42.6769C6.8508 42.6769 6.18301 42.3104 5.83675 41.675Z" fill="white"/>
<path d="M4.37751 33.8306C3.36346 34.2215 2.89353 35.3457 3.28926 36.3476C3.58606 37.1052 4.32804 37.5451 5.09476 37.5695C5.34209 37.5695 5.58942 37.5206 5.83675 37.4229C6.8508 37.0319 7.32073 35.9077 6.925 34.9058C6.52927 33.9039 5.39156 33.4396 4.37751 33.8306Z" fill="white"/>
<path d="M1.36009 30.7759C1.0633 29.7495 1.65689 28.6742 2.69567 28.381C3.73445 28.0877 4.8227 28.6742 5.1195 29.7006C5.41629 30.727 4.8227 31.8022 3.75919 32.0955C3.58606 32.1444 3.38819 32.1688 3.21506 32.1688C2.39887 32.1932 1.60742 31.6312 1.36009 30.7759Z" fill="white"/>
<path d="M56.02 57.5838C55.8963 57.5838 55.7726 57.5838 55.6242 57.535C55.5006 57.5105 55.3769 57.4861 55.2532 57.4128C55.1296 57.3639 55.0307 57.315 54.907 57.2417C54.8081 57.1684 54.7091 57.0951 54.6102 56.9973C54.5113 56.8996 54.4371 56.8018 54.3629 56.7041C54.2887 56.6063 54.2392 56.4842 54.1897 56.362C54.165 56.3009 54.1465 56.2399 54.1279 56.1788C54.1094 56.1178 54.0908 56.0565 54.0661 55.9954C54.0413 55.8732 54.0166 55.751 54.0166 55.6288C54.0166 55.5067 54.0166 55.3845 54.0661 55.2378C54.0908 55.1157 54.1155 54.9935 54.1897 54.8713C54.2268 54.8102 54.2516 54.7552 54.2763 54.7002C54.301 54.6452 54.3258 54.5902 54.3629 54.5291C54.4371 54.4314 54.5113 54.3336 54.6102 54.2359C54.7091 54.1382 54.8081 54.0648 54.907 53.9915C55.0059 53.9182 55.1296 53.8693 55.2533 53.8204C55.3769 53.7716 55.5006 53.7227 55.6242 53.6983C56.2673 53.5761 56.9351 53.7716 57.3803 54.2359C57.4792 54.3337 57.5534 54.4314 57.6276 54.5292C57.7018 54.6269 57.7513 54.7491 57.8007 54.8713C57.8255 54.9324 57.844 54.9935 57.8626 55.0546C57.8811 55.1157 57.8997 55.1768 57.9244 55.2378C57.9491 55.36 57.9739 55.4822 57.9739 55.6288C57.9739 55.751 57.9491 55.8732 57.9244 55.9954C57.8997 56.1176 57.8749 56.2398 57.8007 56.362C57.7636 56.4231 57.7389 56.478 57.7142 56.533C57.6894 56.588 57.6647 56.643 57.6276 56.7041C57.5534 56.8018 57.4792 56.8996 57.3803 56.9973C57.2814 57.0951 57.1824 57.1684 57.0835 57.2417C56.9846 57.315 56.8609 57.3639 56.7373 57.4128C56.6136 57.4616 56.4899 57.5105 56.3662 57.535C56.2673 57.5838 56.1436 57.5838 56.02 57.5838Z" fill="white"/>
<path d="M115.305 39.4267C115.156 39.4267 115.033 39.3778 114.934 39.2801C114.835 39.1824 114.785 39.0602 114.785 38.9135C114.785 38.7669 114.835 38.6447 114.934 38.547C115.033 38.4492 115.156 38.4003 115.305 38.4003H116.591C116.739 38.4003 116.863 38.4492 116.962 38.547C117.061 38.6447 117.11 38.7669 117.11 38.9135C117.11 39.0602 117.061 39.1824 116.962 39.2801C116.863 39.3778 116.739 39.4267 116.591 39.4267H115.305Z" fill="white"/>
<path d="M114.167 44.7541C114.068 44.7052 113.969 44.6563 113.92 44.5586C113.846 44.4608 113.821 44.3631 113.821 44.2653V40.4287C113.821 40.282 113.87 40.1598 113.969 40.0621C114.068 39.9643 114.192 39.9155 114.34 39.9155C114.489 39.9155 114.612 39.9643 114.711 40.0621C114.81 40.1598 114.86 40.282 114.86 40.4287V42.848L117.184 40.0865C117.259 40.0132 117.333 39.9399 117.457 39.9155C117.555 39.891 117.654 39.891 117.778 39.9399C117.902 39.9888 117.976 40.0377 118.025 40.1354C118.1 40.2332 118.124 40.3309 118.124 40.4287V44.2653C118.124 44.412 118.075 44.5342 117.976 44.6319C117.877 44.7297 117.753 44.7785 117.605 44.7785C117.457 44.7785 117.333 44.7297 117.234 44.6319C117.135 44.5342 117.086 44.412 117.086 44.2653V41.846L114.761 44.6075C114.662 44.7297 114.513 44.803 114.365 44.803C114.291 44.803 114.217 44.7785 114.167 44.7541Z" fill="white"/>
<path d="M83.9437 44.5586C83.9931 44.6563 84.0921 44.7052 84.191 44.7541C84.2405 44.7785 84.2899 44.8029 84.3889 44.8029C84.5373 44.8029 84.6856 44.7296 84.7846 44.6074L87.1095 41.846V44.2653C87.1095 44.4119 87.1589 44.5341 87.2579 44.6319C87.3568 44.7296 87.4805 44.7785 87.6289 44.7785C87.7773 44.7785 87.9009 44.7296 87.9999 44.6319C88.0988 44.5341 88.1483 44.4119 88.1483 44.2653V40.4286C88.1483 40.3309 88.1235 40.2331 88.0493 40.1354C87.9751 40.0376 87.9009 39.9888 87.802 39.9399C87.6783 39.891 87.5794 39.891 87.4805 39.9154C87.3568 39.9399 87.2826 40.0132 87.2084 40.0865L84.8835 42.8479V40.4286C84.8835 40.282 84.834 40.1598 84.7351 40.0621C84.6362 39.9643 84.5125 39.9154 84.3641 39.9154C84.2157 39.9154 84.0921 39.9643 83.9931 40.0621C83.8942 40.1598 83.8447 40.282 83.8447 40.4286V44.2653C83.8447 44.3631 83.8695 44.4608 83.9437 44.5586Z" fill="white"/>
<path d="M51.6175 40.9419C51.4691 40.9419 51.3455 40.893 51.2465 40.7952C51.1476 40.6975 51.0981 40.5753 51.0981 40.4287C51.0981 40.2821 51.1476 40.1599 51.2465 40.0621C51.3455 39.9644 51.4691 39.9155 51.6175 39.9155H54.8575C55.0059 39.9155 55.1296 39.9644 55.2285 40.0621C55.3275 40.1599 55.3769 40.2821 55.3769 40.4287C55.3769 40.5753 55.3275 40.6975 55.2285 40.7952C55.1296 40.893 55.0059 40.9419 54.8575 40.9419H53.7446V44.2654C53.7446 44.412 53.6951 44.5342 53.5962 44.6319C53.4972 44.7297 53.3736 44.7786 53.2252 44.7786C53.0768 44.7786 52.9531 44.7297 52.8542 44.6319C52.7552 44.5342 52.7058 44.412 52.7058 44.2654V40.9419H51.6175Z" fill="white"/>
<path fill-rule="evenodd" clip-rule="evenodd" d="M39.8697 44.803V44.9252C39.8697 45.0718 39.9192 45.194 40.0181 45.2917C40.117 45.3895 40.2407 45.4383 40.3891 45.4383C40.5375 45.4383 40.6612 45.3895 40.7601 45.2917C40.859 45.194 40.9085 45.0718 40.9085 44.9252V44.2898C40.9085 44.1432 40.859 44.021 40.7601 43.9232C40.6612 43.8255 40.5375 43.7766 40.3891 43.7766L38.5836 40.2332C38.5341 40.1354 38.4599 40.0621 38.3857 40.0132C38.3115 39.9643 38.2126 39.9399 38.1137 39.9399C38.0147 39.9399 37.9158 39.9643 37.8416 40.0132C37.7427 40.0865 37.6932 40.1354 37.6437 40.2332L35.8382 43.7766C35.6898 43.7766 35.5662 43.8255 35.4672 43.9232C35.3683 44.021 35.3188 44.1432 35.3188 44.2898V44.9252C35.3188 45.0718 35.3683 45.194 35.4672 45.2917C35.5662 45.3895 35.6898 45.4383 35.8382 45.4383C35.9866 45.4383 36.1103 45.3895 36.2092 45.2917C36.3082 45.194 36.3576 45.0718 36.3576 44.9252V44.803H39.8697ZM39.2019 43.7766H37.0007L38.0889 41.5772L39.2019 43.7766Z" fill="white"/>
<path fill-rule="evenodd" clip-rule="evenodd" d="M41.0073 42.3592C41.0073 41.675 41.2547 41.1129 41.7246 40.6486C42.2192 40.1598 42.7881 39.9399 43.4559 39.9399C44.1484 39.9399 44.7173 40.1843 45.1872 40.6486C45.6818 41.1129 45.9044 41.6994 45.9044 42.3592C45.9044 43.019 45.6571 43.6055 45.1872 44.0698C44.7173 44.5342 44.1237 44.7785 43.4559 44.7785C42.7881 44.7785 42.1945 44.5342 41.7246 44.0698C41.2299 43.6055 41.0073 43.0435 41.0073 42.3592ZM44.8904 42.3592C44.8904 41.9682 44.742 41.6505 44.4699 41.3573C44.1979 41.0885 43.8516 40.9418 43.4559 40.9418C43.0602 40.9418 42.7386 41.0885 42.4418 41.3573C42.1698 41.6261 42.0214 41.9682 42.0214 42.3592C42.0214 42.7502 42.1698 43.0679 42.4418 43.3612C42.7139 43.6544 43.0602 43.7766 43.4559 43.7766C43.8516 43.7766 44.1979 43.63 44.4699 43.3612C44.742 43.0923 44.8904 42.7502 44.8904 42.3592Z" fill="white"/>
<path d="M48.8724 44.8029C48.1799 44.8029 47.611 44.5586 47.1411 44.0942C46.6712 43.6299 46.4238 43.0434 46.4238 42.3836C46.4238 41.6994 46.6712 41.1373 47.1411 40.673C47.611 40.1842 48.2046 39.9643 48.8724 39.9643C49.5649 39.9643 50.1338 40.2087 50.6037 40.673C50.7026 40.7707 50.7521 40.8929 50.7521 41.0396C50.7521 41.1862 50.7026 41.3084 50.6037 41.4061C50.5048 41.5039 50.3811 41.5527 50.2327 41.5527C50.0843 41.5527 49.9606 41.5039 49.8617 41.4061C49.5896 41.1373 49.2434 40.9907 48.8477 40.9907C48.4519 40.9907 48.1304 41.1373 47.8336 41.4061C47.5368 41.6749 47.4131 42.0171 47.4131 42.4081C47.4131 42.7991 47.5615 43.1167 47.8336 43.41C48.1057 43.7032 48.4519 43.8254 48.8477 43.8254C49.2434 43.8254 49.5649 43.6788 49.8617 43.41C49.9606 43.3122 50.0843 43.2634 50.2327 43.2634C50.3811 43.2634 50.5048 43.3122 50.6037 43.41C50.7026 43.5077 50.7521 43.6299 50.7521 43.7766C50.7521 43.9232 50.7026 44.0454 50.6037 44.1431C50.1338 44.5586 49.5649 44.8029 48.8724 44.8029Z" fill="white"/>
<path fill-rule="evenodd" clip-rule="evenodd" d="M54.9563 44.4364C55.0058 44.5586 55.1047 44.6564 55.2284 44.7297C55.3521 44.803 55.4757 44.803 55.6241 44.7541C55.7478 44.7053 55.8467 44.6075 55.9209 44.4853L56.2672 43.8011H58.5426L58.8889 44.4853C58.9384 44.5831 59.0126 44.6564 59.0867 44.7053C59.1609 44.7541 59.2599 44.7786 59.3588 44.7786C59.433 44.7786 59.5072 44.7786 59.5814 44.7297C59.7298 44.6808 59.804 44.5831 59.8535 44.4364C59.9029 44.2898 59.9029 44.1676 59.8287 44.0454L57.8748 40.2088C57.8254 40.111 57.7512 40.0377 57.677 39.9888C57.6028 39.9399 57.5038 39.9155 57.4049 39.9155C57.306 39.9155 57.207 39.9399 57.1328 39.9888C57.0339 40.0621 56.9844 40.111 56.935 40.2088L54.9811 44.0454C54.9069 44.1676 54.9069 44.3143 54.9563 44.4364ZM57.4049 41.5773L58.0232 42.7991H56.7866L57.4049 41.5773Z" fill="white"/>
<path fill-rule="evenodd" clip-rule="evenodd" d="M60.5708 44.6563C60.6697 44.7541 60.7934 44.803 60.9418 44.803V44.8518H63.1925C63.6129 44.8518 63.9592 44.7052 64.256 44.412C64.5528 44.1187 64.7012 43.7766 64.7012 43.3612C64.7012 43.0923 64.627 42.848 64.4786 42.6036C64.3302 42.3592 64.157 42.1882 63.9097 42.066C64.0086 41.846 64.0581 41.6505 64.0581 41.4306C64.0581 41.0152 63.9097 40.673 63.6129 40.3798C63.3161 40.0865 62.9699 39.9399 62.5494 39.9399H60.9418C60.7934 39.9399 60.6697 39.9888 60.5708 40.0865C60.4718 40.1843 60.4224 40.3065 60.4224 40.4531V44.2898C60.4224 44.4364 60.4718 44.5586 60.5708 44.6563ZM62.5741 41.846H61.4611V40.9663H62.5741C62.6978 40.9663 62.7967 40.9907 62.8957 41.0885C62.9699 41.1862 63.0193 41.284 63.0193 41.4062C63.0193 41.5283 62.9946 41.6261 62.8957 41.7238C62.7967 41.7972 62.6978 41.846 62.5741 41.846ZM63.2172 43.7766H61.4611V42.8968H63.2172C63.3409 42.8968 63.4398 42.9213 63.5387 43.019C63.6129 43.1168 63.6624 43.2145 63.6624 43.3367C63.6624 43.4589 63.6376 43.5567 63.5387 43.6544C63.4398 43.7277 63.3409 43.7766 63.2172 43.7766Z" fill="white"/>
<path d="M69.6725 40.3309C69.6478 40.2087 69.5736 40.0865 69.4499 40.0132C69.351 39.9399 69.2026 39.9155 69.0542 39.9644C68.9305 39.9888 68.8069 40.0621 68.7327 40.1843L67.595 41.8705H66.4572V40.4531C66.4572 40.3065 66.4078 40.1843 66.3088 40.0865C66.2099 39.9888 66.0863 39.9399 65.9379 39.9399C65.7895 39.9399 65.6658 39.9888 65.5669 40.0865C65.4679 40.1843 65.4185 40.3065 65.4185 40.4531V44.2898C65.4185 44.4364 65.4679 44.5586 65.5669 44.6564C65.6658 44.7541 65.7895 44.803 65.9379 44.803C66.0863 44.803 66.2099 44.7541 66.3088 44.6564C66.4078 44.5586 66.4572 44.4364 66.4572 44.2898V42.8724H67.595L68.7327 44.5586C68.8316 44.7052 68.98 44.7785 69.1531 44.7785C69.2768 44.7785 69.351 44.7541 69.4499 44.7052C69.5736 44.6319 69.6478 44.5342 69.6725 44.3875C69.6973 44.2409 69.6725 44.1187 69.5983 43.9965L68.4853 42.3592L69.5983 40.7219C69.6725 40.5997 69.6973 40.4775 69.6725 40.3309Z" fill="white"/>
<path fill-rule="evenodd" clip-rule="evenodd" d="M70.1424 44.4364C70.1918 44.5586 70.2908 44.6564 70.4145 44.7297C70.5381 44.803 70.6618 44.803 70.8102 44.7541C70.9338 44.7053 71.0328 44.6075 71.107 44.4853L71.4532 43.8011H73.7287L74.0749 44.4853C74.1244 44.5831 74.1986 44.6564 74.2728 44.7053C74.347 44.7541 74.4459 44.7786 74.5448 44.7786C74.619 44.7786 74.6932 44.7786 74.7674 44.7297C74.9158 44.6808 74.99 44.5831 75.0395 44.4364C75.089 44.2898 75.089 44.1676 75.0148 44.0454L73.0609 40.2088C73.0114 40.111 72.9372 40.0377 72.863 39.9888C72.7888 39.9399 72.6899 39.9155 72.5909 39.9155C72.492 39.9155 72.3931 39.9399 72.3189 39.9888C72.2199 40.0621 72.1705 40.111 72.121 40.2088L70.1671 44.0454C70.0929 44.1676 70.0929 44.3143 70.1424 44.4364ZM72.5662 41.5773L73.1845 42.7991H71.9479L72.5662 41.5773Z" fill="white"/>
<path d="M82.6822 40.0621C82.5832 39.9644 82.4596 39.9155 82.3112 39.9155H79.0712C78.9228 39.9155 78.7991 39.9644 78.7002 40.0621C78.6012 40.1599 78.5518 40.2821 78.5518 40.4287V44.2654C78.5518 44.412 78.6012 44.5342 78.7002 44.6319C78.7991 44.7297 78.9228 44.7786 79.0712 44.7786C79.2196 44.7786 79.3432 44.7297 79.4421 44.6319C79.5411 44.5342 79.5905 44.412 79.5905 44.2654V40.9419H81.7918V44.2654C81.7918 44.412 81.8412 44.5342 81.9402 44.6319C82.0391 44.7297 82.1628 44.7786 82.3112 44.7786C82.4596 44.7786 82.5832 44.7297 82.6822 44.6319C82.7811 44.5342 82.8306 44.412 82.8306 44.2654V40.4287C82.8306 40.2821 82.7811 40.1599 82.6822 40.0621Z" fill="white"/>
<path d="M89.1869 40.9419C89.0385 40.9419 88.9148 40.893 88.8159 40.7952C88.7169 40.6975 88.6675 40.5753 88.6675 40.4287C88.6675 40.2821 88.7169 40.1599 88.8159 40.0621C88.9148 39.9644 89.0385 39.9155 89.1869 39.9155H92.4269C92.5753 39.9155 92.699 39.9644 92.7979 40.0621C92.8968 40.1599 92.9463 40.2821 92.9463 40.4287C92.9463 40.5753 92.8968 40.6975 92.7979 40.7952C92.699 40.893 92.5753 40.9419 92.4269 40.9419H91.3139V44.2654C91.3139 44.412 91.2644 44.5342 91.1655 44.6319C91.0666 44.7297 90.9429 44.7786 90.7945 44.7786C90.6461 44.7786 90.5225 44.7297 90.4235 44.6319C90.3246 44.5342 90.2751 44.412 90.2751 44.2654V40.9419H89.1869Z" fill="white"/>
<path fill-rule="evenodd" clip-rule="evenodd" d="M95.9635 41.2106C96.4582 41.2106 96.9034 41.3817 97.2496 41.7482C97.5959 42.0904 97.7938 42.5302 97.7938 43.019C97.7938 43.5077 97.6206 43.9232 97.2496 44.2897C96.9034 44.6319 96.4582 44.8274 95.9635 44.8274H94.0096C93.8612 44.8274 93.7376 44.7785 93.6386 44.6807C93.5397 44.583 93.4902 44.4608 93.4902 44.3142V40.4775C93.4902 40.3309 93.5397 40.2087 93.6386 40.1109C93.7376 40.0132 93.8612 39.9643 94.0096 39.9643C94.158 39.9643 94.2817 40.0132 94.3806 40.1109C94.4796 40.2087 94.529 40.3309 94.529 40.4775V41.2351H95.9635V41.2106ZM95.9635 43.7766C96.1861 43.7766 96.3593 43.7032 96.5077 43.5566C96.6561 43.41 96.7302 43.2145 96.7302 43.019C96.7302 42.7991 96.6561 42.628 96.5077 42.4814C96.3593 42.3347 96.1614 42.2614 95.9635 42.2614H94.529V43.801H95.9635V43.7766Z" fill="white"/>
<path d="M98.9813 44.803C98.8329 44.803 98.7092 44.7541 98.6103 44.6563C98.5114 44.5586 98.4619 44.4364 98.4619 44.2898V40.4531C98.4619 40.3065 98.5114 40.1843 98.6103 40.0865C98.7092 39.9888 98.8329 39.9399 98.9813 39.9399H102.221C102.37 39.9399 102.493 39.9888 102.592 40.0865C102.691 40.1843 102.741 40.3065 102.741 40.4531C102.741 40.5997 102.691 40.7219 102.592 40.8196C102.493 40.9174 102.37 40.9663 102.221 40.9663H99.5007V41.8705H101.578C101.727 41.8705 101.85 41.9193 101.949 42.0171C102.048 42.1148 102.098 42.237 102.098 42.3837C102.098 42.5303 102.048 42.6525 101.949 42.7502C101.85 42.848 101.727 42.8968 101.578 42.8968H99.5007V43.801H102.221C102.37 43.801 102.493 43.8499 102.592 43.9477C102.691 44.0454 102.741 44.1676 102.741 44.3142C102.741 44.4608 102.691 44.583 102.592 44.6808C102.493 44.7785 102.37 44.8274 102.221 44.8274H98.9813V44.803Z" fill="white"/>
<path fill-rule="evenodd" clip-rule="evenodd" d="M103.952 44.803C103.804 44.803 103.68 44.7541 103.581 44.6563C103.483 44.5586 103.433 44.4364 103.433 44.2898V40.4531C103.433 40.3065 103.483 40.1843 103.581 40.0865C103.68 39.9888 103.804 39.9399 103.952 39.9399H105.56C105.981 39.9399 106.327 40.0865 106.624 40.3798C106.92 40.673 107.069 41.0152 107.069 41.4306C107.069 41.6505 107.019 41.846 106.92 42.066C107.168 42.1882 107.341 42.3592 107.489 42.6036C107.638 42.848 107.712 43.0923 107.712 43.3612C107.712 43.7766 107.564 44.1187 107.267 44.412C106.97 44.7052 106.624 44.8518 106.203 44.8518H103.952V44.803ZM104.472 41.846H105.585C105.709 41.846 105.807 41.7972 105.906 41.7238C106.005 41.6261 106.03 41.5283 106.03 41.4062C106.03 41.284 105.981 41.1862 105.906 41.0885C105.807 40.9907 105.709 40.9663 105.585 40.9663H104.472V41.846ZM104.472 43.7766H106.228C106.352 43.7766 106.451 43.7277 106.549 43.6544C106.648 43.5567 106.673 43.4589 106.673 43.3367C106.673 43.2145 106.624 43.1168 106.549 43.019C106.451 42.9213 106.352 42.8968 106.228 42.8968H104.472V43.7766Z" fill="white"/>
<path fill-rule="evenodd" clip-rule="evenodd" d="M108.157 42.3592C108.157 41.675 108.405 41.1129 108.874 40.6486C109.369 40.1598 109.938 39.9399 110.606 39.9399C111.298 39.9399 111.867 40.1843 112.337 40.6486C112.832 41.1129 113.054 41.6994 113.054 42.3592C113.054 43.019 112.807 43.6055 112.337 44.0698C111.867 44.5342 111.274 44.7785 110.606 44.7785C109.938 44.7785 109.344 44.5342 108.874 44.0698C108.38 43.6055 108.157 43.0435 108.157 42.3592ZM112.04 42.3592C112.04 41.9682 111.892 41.6505 111.62 41.3573C111.348 41.0885 111.002 40.9418 110.606 40.9418C110.21 40.9418 109.889 41.0885 109.592 41.3573C109.32 41.6261 109.171 41.9682 109.171 42.3592C109.171 42.7502 109.32 43.0679 109.592 43.3612C109.864 43.6544 110.21 43.7766 110.606 43.7766C111.002 43.7766 111.323 43.63 111.62 43.3612C111.892 43.0923 112.04 42.7502 112.04 42.3592Z" fill="white"/>
<path fill-rule="evenodd" clip-rule="evenodd" d="M122.131 44.6563C122.23 44.7541 122.354 44.803 122.502 44.803V44.8518H124.753C125.173 44.8518 125.52 44.7052 125.817 44.412C126.113 44.1187 126.262 43.7766 126.262 43.3612C126.262 43.0923 126.188 42.848 126.039 42.6036C125.891 42.3592 125.718 42.1882 125.47 42.066C125.569 41.846 125.619 41.6505 125.619 41.4306C125.619 41.0152 125.47 40.673 125.173 40.3798C124.877 40.0865 124.53 39.9399 124.11 39.9399H122.502C122.354 39.9399 122.23 39.9888 122.131 40.0865C122.032 40.1843 121.983 40.3065 121.983 40.4531V44.2898C121.983 44.4364 122.032 44.5586 122.131 44.6563ZM124.135 41.846H123.022V40.9663H124.135C124.258 40.9663 124.357 40.9907 124.456 41.0885C124.53 41.1862 124.58 41.284 124.58 41.4062C124.58 41.5283 124.555 41.6261 124.456 41.7238C124.357 41.7972 124.258 41.846 124.135 41.846ZM124.778 43.7766H123.022V42.8968H124.778C124.901 42.8968 125 42.9213 125.099 43.019C125.173 43.1168 125.223 43.2145 125.223 43.3367C125.223 43.4589 125.198 43.5567 125.099 43.6544C125 43.7277 124.901 43.7766 124.778 43.7766Z" fill="white"/>
<path fill-rule="evenodd" clip-rule="evenodd" d="M127.424 40.6486C126.954 41.1129 126.707 41.675 126.707 42.3592C126.707 43.0435 126.954 43.6055 127.424 44.0698C127.894 44.5342 128.488 44.7785 129.156 44.7785C129.823 44.7785 130.417 44.5342 130.887 44.0698C131.357 43.6055 131.604 43.019 131.604 42.3592C131.604 41.6994 131.382 41.1129 130.887 40.6486C130.417 40.1843 129.848 39.9399 129.156 39.9399C128.488 39.9399 127.919 40.1598 127.424 40.6486ZM130.17 41.3573C130.442 41.6505 130.59 41.9682 130.59 42.3592C130.59 42.7502 130.466 43.0923 130.17 43.3612C129.898 43.63 129.551 43.7766 129.156 43.7766C128.76 43.7766 128.414 43.6544 128.142 43.3612C127.869 43.0679 127.721 42.7502 127.721 42.3592C127.721 41.9682 127.869 41.6261 128.142 41.3573C128.438 41.0885 128.76 40.9418 129.156 40.9418C129.551 40.9418 129.898 41.0885 130.17 41.3573Z" fill="white"/>
<path fill-rule="evenodd" clip-rule="evenodd" d="M132.791 44.9252V44.803H136.303V44.9252C136.303 45.0718 136.353 45.194 136.452 45.2917C136.551 45.3895 136.674 45.4383 136.823 45.4383C136.971 45.4383 137.095 45.3895 137.194 45.2917C137.293 45.194 137.342 45.0718 137.342 44.9252V44.2898C137.342 44.1432 137.293 44.021 137.194 43.9232C137.095 43.8255 136.971 43.7766 136.823 43.7766L135.017 40.2332C134.968 40.1354 134.894 40.0621 134.819 40.0132C134.745 39.9643 134.646 39.9399 134.547 39.9399C134.448 39.9399 134.349 39.9643 134.275 40.0132C134.176 40.0865 134.127 40.1354 134.077 40.2332L132.272 43.7766C132.123 43.7766 132 43.8255 131.901 43.9232C131.802 44.021 131.752 44.1432 131.752 44.2898V44.9252C131.752 45.0718 131.802 45.194 131.901 45.2917C132 45.3895 132.123 45.4383 132.272 45.4383C132.42 45.4383 132.544 45.3895 132.643 45.2917C132.742 45.194 132.791 45.0718 132.791 44.9252ZM135.636 43.7766H133.434L134.523 41.6017L135.636 43.7766Z" fill="white"/>
<path fill-rule="evenodd" clip-rule="evenodd" d="M141.621 41.7483C141.274 41.3818 140.829 41.2107 140.335 41.2107V41.2351H138.9V40.4776C138.9 40.3309 138.851 40.2088 138.752 40.111C138.653 40.0133 138.529 39.9644 138.381 39.9644C138.232 39.9644 138.109 40.0133 138.01 40.111C137.911 40.2088 137.861 40.3309 137.861 40.4776V44.3143C137.861 44.4609 137.911 44.5831 138.01 44.6808C138.109 44.7786 138.232 44.8274 138.381 44.8274H140.335C140.829 44.8274 141.274 44.6319 141.621 44.2898C141.992 43.9233 142.165 43.5078 142.165 43.0191C142.165 42.5303 141.967 42.1149 141.621 41.7483ZM140.879 43.5567C140.73 43.7033 140.557 43.7766 140.335 43.7766V43.8011H138.9V42.2615H140.335C140.532 42.2615 140.73 42.3348 140.879 42.4814C141.027 42.6281 141.101 42.7991 141.101 43.0191C141.101 43.2146 141.027 43.4101 140.879 43.5567Z" fill="white"/>
<path d="M142.66 40.4287C142.66 40.2821 142.709 40.1599 142.808 40.0621C142.907 39.9644 143.031 39.9155 143.179 39.9155C143.327 39.9155 143.451 39.9644 143.55 40.0621C143.649 40.1599 143.698 40.2821 143.698 40.4287V44.2654C143.698 44.412 143.649 44.5342 143.55 44.6319C143.451 44.7297 143.327 44.7786 143.179 44.7786C143.031 44.7786 142.907 44.7297 142.808 44.6319C142.709 44.5342 142.66 44.412 142.66 44.2654V40.4287Z" fill="white"/>
</svg>
