<svg width="213" height="73" viewBox="0 0 213 73" fill="none" xmlns="http://www.w3.org/2000/svg">
<path fill-rule="evenodd" clip-rule="evenodd" d="M85.8111 16.2304C85.8915 16.2242 85.9718 16.2179 86.046 16.2179C91.4378 16.2179 95.8403 20.6203 95.8403 26.0732C95.8403 31.5262 91.4626 35.9536 86.0708 35.9536C80.679 35.9536 76.3013 31.5262 76.3013 26.0732C76.3013 25.7231 76.3013 25.3479 76.3507 24.9977V10.69C76.3507 7.51326 79.0219 4.91187 82.3361 4.91187C84.661 4.91187 86.7386 6.18755 87.7526 8.23865C88.7172 10.1897 88.4946 12.3659 87.1838 14.1168L85.5761 16.243C85.6503 16.243 85.7307 16.2367 85.8111 16.2304ZM82.3361 8.58884C81.0253 8.58884 79.9617 9.53935 79.9617 10.715V17.6437L84.3147 11.8906C84.9578 11.0151 84.661 10.1897 84.5126 9.86453C84.2158 9.23919 83.4738 8.58884 82.3361 8.58884ZM80.0112 26.0983C80.0112 29.4751 82.7318 32.2015 86.046 32.2015C89.385 32.2015 92.0809 29.4751 92.0809 26.0983C92.0809 22.7214 89.385 19.995 86.046 19.995C82.7071 19.995 80.0112 22.7465 80.0112 26.0983Z" fill="#2979FF"/>
<path fill-rule="evenodd" clip-rule="evenodd" d="M45.3603 16.218C39.9685 16.218 35.5908 20.6454 35.5908 26.0983C35.5908 31.5512 39.9685 35.9786 45.3603 35.9786H55.1298V26.0983C55.1298 20.6454 50.7521 16.218 45.3603 16.218ZM51.3952 32.2016H45.3603C42.0461 32.2016 39.3255 29.4751 39.3255 26.0983C39.3255 22.7465 42.0214 19.995 45.3603 19.995C48.6745 19.995 51.3952 22.7215 51.3952 26.0983V32.2016Z" fill="#2979FF"/>
<path fill-rule="evenodd" clip-rule="evenodd" d="M148.373 16.218C142.981 16.218 138.604 20.6454 138.604 26.0983C138.604 31.5512 142.981 35.9786 148.373 35.9786C153.765 35.9786 158.143 31.5512 158.143 26.0983C158.143 20.6454 153.765 16.218 148.373 16.218ZM148.373 32.2016C145.059 32.2016 142.338 29.4751 142.338 26.0983C142.338 22.7465 145.034 19.995 148.373 19.995C151.687 19.995 154.408 22.7215 154.408 26.0983C154.408 29.4751 151.687 32.2016 148.373 32.2016Z" fill="#2979FF"/>
<path fill-rule="evenodd" clip-rule="evenodd" d="M96.6812 26.0983C96.6812 20.6454 101.059 16.218 106.451 16.218C111.842 16.218 116.245 20.6454 116.245 26.0983V35.9786H106.451C101.059 35.9786 96.6812 31.5512 96.6812 26.0983ZM106.451 32.2016H112.485V26.0983C112.485 22.7215 109.765 19.995 106.451 19.995C103.112 19.995 100.416 22.7465 100.416 26.0983C100.416 29.4751 103.136 32.2016 106.451 32.2016Z" fill="#2979FF"/>
<path d="M72.616 16.5182C71.7998 16.5182 71.0825 17.0685 70.8352 17.8689C70.5384 18.8694 69.8706 20.0201 68.7576 21.1206C66.9521 22.8966 64.4294 23.9472 61.5109 24.1973V18.119C61.5109 17.0685 60.67 16.218 59.6312 16.218C58.5924 16.218 57.7515 17.0685 57.7515 18.119V33.8775C57.7515 34.9281 58.5924 35.7785 59.6312 35.7785C60.67 35.7785 61.5109 34.9281 61.5109 33.8775V27.9993C63.5142 27.8743 65.4187 27.424 67.1005 26.6736C69.5243 27.8493 70.3653 31.001 70.5879 33.9776C70.6621 34.9781 71.4782 35.7535 72.4676 35.7535C73.5558 35.7535 74.4215 34.828 74.3473 33.7274C74.001 28.8998 72.4428 26.1233 70.6373 24.5225C70.7608 24.4101 70.8905 24.2976 71.0202 24.1852L71.0212 24.1844C71.1508 24.072 71.2805 23.9595 71.404 23.8471C72.8633 22.4213 73.9021 20.7204 74.4462 19.0195C74.7925 17.7939 73.9021 16.5182 72.616 16.5182Z" fill="#2979FF"/>
<path d="M136.971 23.1717V33.8775C136.971 34.4027 136.748 34.878 136.427 35.2282C136.081 35.5784 135.611 35.7785 135.091 35.7785C134.052 35.7785 133.211 34.928 133.211 33.8775V23.1717C133.211 21.4458 131.826 20.045 130.095 20.045H125.198C123.491 20.045 122.082 21.4458 122.082 23.1717V33.8775C122.082 34.928 121.241 35.7785 120.202 35.7785C119.163 35.7785 118.322 34.928 118.322 33.8775V23.1717C118.322 21.1206 119.188 19.2946 120.573 18.0189C121.785 16.9183 123.393 16.243 125.173 16.243H130.07C131.826 16.243 133.434 16.9183 134.671 18.0189C136.105 19.2946 136.971 21.1206 136.971 23.1717Z" fill="#2979FF"/>
<path d="M212.159 32.7019C212.431 32.4018 213.47 31.2261 212.728 30.0005C212.481 29.6003 212.085 29.3001 211.664 29.175C211.649 29.1698 211.635 29.1646 211.621 29.1596C211.568 29.1407 211.525 29.125 211.467 29.125C210.799 28.9999 210.082 29.3001 209.661 29.8504L209.608 29.9144C209.508 30.0367 209.42 30.1439 209.315 30.2506C208.202 31.4513 206.644 32.2017 204.888 32.2017C201.623 32.2017 198.952 29.5753 198.853 26.2985C198.754 22.9467 201.524 20.0451 204.838 20.0451C206.025 20.0201 207.114 20.3703 208.053 20.9456C208.251 21.0707 208.573 21.2958 208.771 21.4709C208.919 21.596 209.092 21.696 209.29 21.721C209.463 21.746 209.636 21.7711 209.809 21.746C210.725 21.671 211.467 20.9706 211.615 20.0701C211.64 19.9951 211.64 19.9451 211.64 19.895C211.689 19.2697 211.392 18.6944 210.922 18.3192C210.7 18.1191 210.453 17.944 210.205 17.7939C208.548 16.7183 206.545 16.118 204.418 16.2181C199.521 16.4432 195.514 20.4203 195.143 25.348C194.722 31.1261 199.249 35.9787 204.888 35.9787C207.781 35.9787 210.378 34.728 212.159 32.7019Z" fill="#2979FF"/>
<path d="M159.132 36.1536C158.86 36.1536 158.588 36.1035 158.34 35.9785C157.425 35.5282 157.03 34.4026 157.475 33.4771L164.697 18.2189C164.994 17.5936 165.637 17.1684 166.329 17.1434C167.022 17.1183 167.665 17.4935 168.011 18.1189L176.049 33.1269C176.544 34.0274 176.198 35.1781 175.307 35.6783C174.417 36.1786 173.279 35.8284 172.784 34.9279L166.453 23.1716L160.789 35.103C160.492 35.7784 159.824 36.1536 159.132 36.1536Z" fill="#2979FF"/>
<path d="M179.116 36.0536C179.314 36.1286 179.512 36.1536 179.709 36.1536C180.278 36.1536 180.822 35.9035 181.193 35.4282L189.479 24.5474V34.3026C189.479 35.3282 190.32 36.1786 191.334 36.1786C192.348 36.1786 193.189 35.3282 193.189 34.3026V19.0444C193.189 18.244 192.67 17.5186 191.928 17.2685C191.161 16.9933 190.345 17.2685 189.85 17.8938L181.564 28.7746V19.0444C181.564 18.0189 180.724 17.1684 179.709 17.1684C178.695 17.1684 177.854 18.0189 177.854 19.0444V34.2776C177.854 35.078 178.374 35.8034 179.116 36.0536Z" fill="#2979FF"/>
<path d="M21.3693 3.98637C21.3074 3.98637 21.2456 3.98012 21.1838 3.97387C21.1219 3.96761 21.0601 3.96136 20.9983 3.96136C20.8746 3.93635 20.7509 3.88632 20.6273 3.83629C20.5036 3.78627 20.4047 3.73624 20.281 3.6612C20.1821 3.58616 20.0831 3.51111 19.9842 3.41106C19.8853 3.31101 19.8111 3.21096 19.7369 3.1109C19.6627 3.01085 19.6132 2.88578 19.5638 2.76071C19.5143 2.63566 19.4648 2.51057 19.4401 2.38551C19.4154 2.26045 19.3906 2.13538 19.3906 1.9853C19.3906 1.46002 19.5885 0.959746 19.9595 0.584545C20.4047 0.134303 21.0972 -0.0908185 21.7155 0.0342487C21.7774 0.0467555 21.8392 0.0655155 21.901 0.0842756C21.9629 0.103036 22.0247 0.121796 22.0865 0.134303C22.1483 0.159316 22.204 0.190583 22.2596 0.22185C22.3153 0.253116 22.3709 0.284383 22.4328 0.309397C22.5317 0.384428 22.6307 0.459489 22.7296 0.559531C23.1006 0.934733 23.2984 1.435 23.2984 1.96028C23.2984 2.08535 23.2984 2.21042 23.249 2.3605C23.2242 2.48557 23.1995 2.61063 23.1253 2.7357C23.0758 2.86077 23.0264 2.96082 22.9522 3.08589C22.878 3.18594 22.8038 3.286 22.7048 3.38605C22.6059 3.48609 22.507 3.56113 22.4081 3.63616C22.3091 3.7112 22.1854 3.76125 22.0618 3.81128C21.9999 3.83629 21.9381 3.85505 21.8763 3.87381C21.8145 3.89257 21.7526 3.91133 21.6908 3.93635C21.6166 3.98637 21.4929 3.98637 21.3693 3.98637Z" fill="#26C6DA"/>
<path d="M22.136 31.7263C21.1467 32.1765 20.7262 33.3521 21.1961 34.3527C21.5424 35.0781 22.2349 35.5033 22.9522 35.5033C23.249 35.5033 23.521 35.4282 23.7931 35.3032C24.7824 34.8529 25.2029 33.6773 24.733 32.6768C24.2878 31.6762 23.1253 31.251 22.136 31.7263Z" fill="#26C6DA"/>
<path d="M19.3659 28.6496C19.168 27.574 19.8606 26.5485 20.9241 26.3484C21.9876 26.1483 23.0017 26.8486 23.1995 27.9242C23.3974 28.9998 22.7049 30.0253 21.6413 30.2255C21.5177 30.2505 21.394 30.2505 21.2703 30.2505C20.38 30.2505 19.539 29.6001 19.3659 28.6496Z" fill="#26C6DA"/>
<path d="M18.9949 22.6464C18.9207 23.747 19.7369 24.6725 20.8252 24.7475H20.9488C21.9876 24.7475 22.8533 23.9471 22.9027 22.8965C22.9769 21.7959 22.1607 20.8704 21.0725 20.7954C19.9842 20.7203 19.0691 21.5458 18.9949 22.6464Z" fill="#26C6DA"/>
<path d="M21.3693 19.2445C20.3305 18.9194 19.7616 17.7938 20.1079 16.7432C20.4294 15.6926 21.5424 15.1423 22.5812 15.4675C23.62 15.7927 24.1888 16.9183 23.8426 17.9689C23.5705 18.7943 22.8038 19.3446 21.9876 19.3446C21.765 19.3196 21.5671 19.2946 21.3693 19.2445Z" fill="#26C6DA"/>
<path d="M22.6059 11.2903C22.0371 12.2158 22.3091 13.4414 23.2242 14.0167C23.5458 14.2419 23.9168 14.3419 24.263 14.3169C24.9061 14.3169 25.5491 13.9917 25.9201 13.3914C26.489 12.4659 26.2169 11.2402 25.3018 10.6649C24.3867 10.0896 23.1748 10.3648 22.6059 11.2903Z" fill="#26C6DA"/>
<path d="M26.2911 9.46429C25.5491 8.66386 25.5739 7.41319 26.3653 6.66278C27.1568 5.91238 28.3934 5.93739 29.1354 6.73782C29.8774 7.53825 29.8527 8.78893 29.0612 9.53933C28.6902 9.88952 28.1956 10.0896 27.7256 10.0896C27.2063 10.0646 26.6869 9.8645 26.2911 9.46429Z" fill="#26C6DA"/>
<path d="M31.1388 3.08586C30.1989 3.63616 29.8774 4.8368 30.3968 5.78731C30.7678 6.43766 31.4356 6.78785 32.1034 6.78785C32.4496 6.78785 32.7712 6.71281 33.068 6.53772C34.0078 5.98742 34.3293 4.78677 33.8099 3.83626C33.2658 2.88575 32.0786 2.56058 31.1388 3.08586Z" fill="#26C6DA"/>
<path d="M35.2692 3.26095C34.9971 2.21039 35.6154 1.13481 36.6542 0.83465C37.693 0.559502 38.7565 1.18484 39.0533 2.2354C39.3254 3.28597 38.7071 4.38656 37.6683 4.66171C37.4952 4.71173 37.322 4.73675 37.1736 4.73675C36.308 4.73675 35.5165 4.13643 35.2692 3.26095Z" fill="#26C6DA"/>
<path d="M46.0775 2.13535C45.8549 3.21093 46.4979 4.26149 47.5615 4.51163C47.7099 4.53664 47.8582 4.56165 48.0066 4.56165C48.897 4.56165 49.7132 3.93632 49.9111 3.01082C50.1337 1.93524 49.4906 0.884677 48.4271 0.634542C47.3636 0.409421 46.3248 1.05977 46.0775 2.13535Z" fill="#26C6DA"/>
<path d="M40.6115 2.0353C40.6115 0.934704 41.4772 0.0342194 42.5407 0.0342194C43.6289 0.0342194 44.4946 0.90969 44.5193 1.98527C44.5193 3.08586 43.6536 3.96133 42.5901 3.98634H42.5654C41.5019 3.98634 40.6115 3.11087 40.6115 2.0353Z" fill="#26C6DA"/>
<path d="M52.681 6.5378C52.8047 6.56281 52.9284 6.58782 53.052 6.58782C53.1757 6.58782 53.3241 6.56281 53.4478 6.5378C53.5714 6.51278 53.6951 6.46275 53.8188 6.41273C53.9424 6.3627 54.0661 6.31267 54.165 6.23763C54.264 6.16259 54.3629 6.08755 54.4618 5.9875C54.8328 5.6123 55.0307 5.11203 55.0307 4.58675C55.0307 4.06146 54.8328 3.56119 54.4618 3.18599C54.3629 3.08594 54.264 3.0109 54.165 2.93586C54.0414 2.86082 53.9424 2.81079 53.8188 2.76076C53.6951 2.68572 53.5714 2.66071 53.4478 2.6357C53.2004 2.58567 52.9284 2.58567 52.681 2.6357C52.5574 2.66071 52.4337 2.71074 52.3101 2.76076C52.1864 2.81079 52.0627 2.86082 51.9638 2.93586C51.8649 3.0109 51.7659 3.08594 51.667 3.18599C51.296 3.56119 51.0981 4.06146 51.0981 4.58675C51.0981 5.11203 51.296 5.6123 51.667 5.9875C51.7659 6.08755 51.8649 6.16259 51.9638 6.23763C52.0875 6.31267 52.1864 6.3627 52.3101 6.41273C52.4337 6.48777 52.5574 6.51278 52.681 6.5378Z" fill="#26C6DA"/>
<path d="M25.5243 40.1307C25.648 40.1557 25.7716 40.1807 25.8953 40.1807C26.019 40.1807 26.1674 40.1557 26.291 40.1307C26.4147 40.1307 26.5384 40.0807 26.662 40.0306C26.7857 39.9806 26.9094 39.9306 27.0083 39.8555C27.1072 39.7805 27.2062 39.7055 27.3051 39.6054C27.404 39.5054 27.4782 39.4053 27.5524 39.3053C27.6266 39.1802 27.6761 39.0801 27.7255 38.9551C27.775 38.83 27.8245 38.7049 27.8492 38.5799C27.8739 38.4548 27.8987 38.3297 27.8987 38.2047C27.8987 38.0796 27.8739 37.9545 27.8492 37.8295C27.8245 37.7669 27.8059 37.7044 27.7874 37.6418C27.7688 37.5793 27.7503 37.5168 27.7255 37.4543C27.6761 37.3292 27.6266 37.2041 27.5524 37.1041C27.4782 37.004 27.404 36.904 27.3051 36.8039C27.2062 36.7039 27.1072 36.6288 27.0083 36.5538C26.8846 36.4787 26.7857 36.4287 26.662 36.3787C26.5384 36.3287 26.4147 36.2786 26.291 36.2536C25.648 36.1285 24.9555 36.3537 24.5103 36.8039C24.1393 37.1791 23.9414 37.6794 23.9414 38.2047C23.9414 38.3297 23.9661 38.4548 23.9909 38.5799C24.0156 38.7049 24.0403 38.83 24.0898 38.9551C24.1393 39.0801 24.1887 39.2052 24.2629 39.3053C24.3371 39.4053 24.4113 39.5054 24.5103 39.6054C24.6092 39.7055 24.7081 39.7805 24.8071 39.8555C24.9307 39.9306 25.0297 39.9806 25.1533 40.0306C25.277 40.0807 25.4007 40.1057 25.5243 40.1307Z" fill="#26C6DA"/>
<path d="M3.67302 53.8258C3.73485 53.832 3.79669 53.8383 3.85852 53.8383C3.98218 53.8383 4.10585 53.8133 4.18005 53.7883C4.30371 53.7633 4.42737 53.7132 4.55104 53.6632C4.6747 53.6132 4.79837 53.5632 4.8973 53.4881C4.99623 53.4131 5.09516 53.338 5.1941 53.238C5.29303 53.1379 5.36723 53.0379 5.44142 52.9378C5.51562 52.8127 5.56509 52.7127 5.61456 52.5876C5.68875 52.4626 5.71349 52.3375 5.73822 52.2124L5.74897 52.1483C5.76964 52.0259 5.78769 51.919 5.78769 51.8122C5.78769 51.2869 5.58982 50.7867 5.21883 50.4115C5.1199 50.3114 5.02097 50.2364 4.92203 50.1613C4.8602 50.1363 4.80456 50.105 4.74891 50.0738C4.69326 50.0425 4.63761 50.0112 4.57577 49.9862C4.51398 49.9737 4.45219 49.955 4.39039 49.9362C4.32856 49.9175 4.26661 49.8987 4.20478 49.8862C3.58646 49.7611 2.89393 49.9862 2.44874 50.4365C2.07775 50.8117 1.87988 51.3119 1.87988 51.8372C1.87988 51.9873 1.90462 52.1124 1.92935 52.2374C1.95408 52.3625 2.00355 52.4876 2.05301 52.6126C2.10248 52.7377 2.15195 52.8628 2.22614 52.9628C2.30034 53.0629 2.37454 53.1629 2.47347 53.263C2.57239 53.363 2.67131 53.4381 2.77022 53.5131C2.83191 53.538 2.88749 53.5693 2.94301 53.6005C2.99861 53.6317 3.05475 53.6632 3.11653 53.6882C3.24017 53.7382 3.36388 53.7883 3.48752 53.8133C3.54932 53.8133 3.61123 53.8195 3.67302 53.8258Z" fill="#26C6DA"/>
<path d="M35.4174 70.6221C35.3679 71.7227 36.2088 72.6232 37.2971 72.6732H37.3713C38.41 72.6732 39.2757 71.8477 39.3252 70.7722C39.3746 69.6716 38.5337 68.7711 37.4455 68.7211C36.3572 68.671 35.4668 69.5215 35.4174 70.6221Z" fill="#26C6DA"/>
<path d="M41.0812 70.7221C41.007 69.6215 41.7985 68.671 42.862 68.596C43.9502 68.4959 44.8901 69.3214 44.9643 70.397C45.0632 71.4976 44.247 72.4481 43.1835 72.5231H43.0351C42.0211 72.5481 41.1801 71.7727 41.0812 70.7221Z" fill="#26C6DA"/>
<path d="M29.803 69.7466C29.6051 70.8472 30.3224 71.8477 31.3859 72.0478C31.4848 72.0729 31.6085 72.0979 31.7074 72.0729C32.6473 72.0729 33.4635 71.3975 33.6366 70.422C33.8345 69.3464 33.1172 68.3208 32.0537 68.1458C30.9902 67.9456 29.9761 68.671 29.803 69.7466Z" fill="#26C6DA"/>
<path d="M46.745 70.1718C46.5224 69.0963 47.1902 68.0457 48.2538 67.8206C49.3173 67.5955 50.3561 68.2708 50.5786 69.3464C50.8012 70.422 50.1335 71.4725 49.0699 71.6977L49.0145 71.7071C48.8898 71.7286 48.779 71.7477 48.6495 71.7477C47.7591 71.7227 46.9429 71.0973 46.745 70.1718Z" fill="#26C6DA"/>
<path d="M24.3123 68.1708C23.9907 69.1963 24.5596 70.3219 25.5984 70.6471C25.7963 70.6971 25.9941 70.7221 26.192 70.7221C27.0082 70.7221 27.7749 70.1969 28.0469 69.3464C28.3685 68.3208 27.7996 67.1952 26.7608 66.8701C25.7468 66.5449 24.6338 67.1202 24.3123 68.1708Z" fill="#26C6DA"/>
<path d="M52.2852 68.8211C51.8895 67.7956 52.3842 66.67 53.3982 66.2697C54.4123 65.8695 55.55 66.3698 55.921 67.3953C56.3167 68.4209 55.822 69.5715 54.808 69.9467C54.5854 70.0468 54.3381 70.0718 54.0907 70.0718C53.324 70.0718 52.582 69.5965 52.2852 68.8211Z" fill="#26C6DA"/>
<path d="M19.1184 65.8195C18.6732 66.795 19.0936 67.9707 20.0582 68.4459C20.3303 68.571 20.6271 68.621 20.8744 68.621C21.6164 68.621 22.3336 68.2208 22.6552 67.4954C23.1004 66.5199 22.6799 65.3442 21.7153 64.869C20.7507 64.4187 19.5883 64.819 19.1184 65.8195Z" fill="#26C6DA"/>
<path d="M57.5286 66.5949C56.9597 65.6694 57.2318 64.4438 58.1469 63.8685C59.062 63.2931 60.274 63.5683 60.8428 64.4938C61.4117 65.4193 61.1396 66.6449 60.2245 67.2203C59.903 67.4204 59.532 67.5204 59.1857 67.5204C58.5427 67.5204 57.8996 67.1952 57.5286 66.5949Z" fill="#26C6DA"/>
<path d="M14.3202 62.7679C13.7266 63.6934 13.9739 64.919 14.889 65.5193C15.2106 65.7194 15.5816 65.8445 15.9525 65.8445C16.5956 65.8445 17.2139 65.5193 17.5849 64.944C18.1785 64.0185 17.9312 62.7929 17.0161 62.1925C16.1257 61.5922 14.9138 61.8424 14.3202 62.7679Z" fill="#26C6DA"/>
<path d="M62.2279 63.3682C61.4611 62.5928 61.4611 61.3421 62.2031 60.5667C62.9698 59.7913 64.2065 59.7913 64.9732 60.5417C65.7399 61.3171 65.7399 62.5678 64.9732 63.3432C64.6022 63.7434 64.0828 63.9185 63.5882 63.9185C63.1182 63.9185 62.6236 63.7434 62.2279 63.3682Z" fill="#26C6DA"/>
<path d="M9.91771 59.1409C9.20046 59.9664 9.29939 61.217 10.1156 61.9174C10.4866 62.2426 10.9318 62.3927 11.4017 62.4177C11.9458 62.4177 12.4899 62.1675 12.8857 61.7173C13.6029 60.8668 13.504 59.6162 12.6878 58.9158C11.8469 58.2154 10.6102 58.3155 9.91771 59.1409Z" fill="#26C6DA"/>
<path d="M66.0862 59.1159C65.1711 58.5406 64.8743 57.3399 65.4184 56.3894C65.9873 55.4639 67.1744 55.1638 68.1143 55.7141C69.0294 56.2894 69.3262 57.49 68.7821 58.4405C68.4111 59.0659 67.768 59.391 67.1002 59.391C66.754 59.4161 66.4077 59.316 66.0862 59.1159Z" fill="#26C6DA"/>
<path d="M6.03464 54.8886C5.24319 55.614 5.16899 56.8647 5.88624 57.6901C6.25724 58.1404 6.80136 58.3655 7.34549 58.3405C7.81541 58.3405 8.28534 58.1654 8.65633 57.8402C9.44779 57.1148 9.52198 55.8641 8.80473 55.0387C8.08747 54.2383 6.85083 54.1632 6.03464 54.8886Z" fill="#26C6DA"/>
<path d="M69.1037 54.1132C69.2274 54.1382 69.3511 54.1632 69.4747 54.1632C69.5984 54.1632 69.7221 54.1632 69.821 54.1132C69.9446 54.0882 70.0683 54.0632 70.192 54.0132C70.3156 53.9631 70.4393 53.9131 70.5382 53.8381C70.6372 53.763 70.7361 53.688 70.835 53.5879C70.934 53.4879 71.0082 53.3878 71.0824 53.2878C71.1566 53.1627 71.206 53.0627 71.2555 52.9376C71.305 52.8125 71.3544 52.6875 71.3792 52.5624C71.4286 52.4373 71.4286 52.3123 71.4286 52.1872C71.4286 51.6619 71.2308 51.1616 70.8598 50.7864C70.7608 50.6864 70.6619 50.6113 70.563 50.5363C70.5011 50.5113 70.4455 50.48 70.3898 50.4488C70.3342 50.4175 70.2785 50.3862 70.2167 50.3612C70.093 50.3112 69.9694 50.2612 69.8457 50.2361C69.5984 50.1861 69.3263 50.1861 69.079 50.2361C68.9553 50.2612 68.8317 50.3112 68.708 50.3612C68.5843 50.4112 68.4607 50.4613 68.3617 50.5363C68.2628 50.6113 68.1639 50.6864 68.065 50.7864C67.694 51.1616 67.4961 51.6619 67.4961 52.1872C67.4961 52.3123 67.5208 52.4373 67.5456 52.5624C67.5703 52.6875 67.6198 52.8125 67.6692 52.9376C67.7187 53.0626 67.7682 53.1877 67.8424 53.2878C67.9165 53.3878 67.9908 53.4879 68.0897 53.5879C68.1886 53.688 68.2875 53.763 68.3864 53.838C68.4482 53.863 68.5039 53.8943 68.5595 53.9255C68.6151 53.9568 68.6709 53.9882 68.7327 54.0132C68.7946 54.0257 68.8564 54.0444 68.9182 54.0632C68.9801 54.082 69.0419 54.1007 69.1037 54.1132Z" fill="#26C6DA"/>
<path d="M29.3086 54.2384C28.344 53.7381 27.9483 52.5625 28.4429 51.587C28.9376 50.6115 30.1 50.2112 31.0646 50.7115C32.0292 51.2118 32.4249 52.3874 31.9303 53.3629C31.584 54.0633 30.8915 54.4635 30.1742 54.4635C29.9022 54.4635 29.6054 54.3885 29.3086 54.2384Z" fill="#26C6DA"/>
<path d="M23.5953 48.1601C22.9522 49.0356 23.1253 50.2863 23.991 50.9366C24.3372 51.1868 24.733 51.3118 25.1534 51.3118C25.7718 51.3118 26.3653 51.0367 26.7363 50.5114C27.3794 49.6359 27.2063 48.3853 26.3406 47.7349C25.475 47.1096 24.2383 47.2847 23.5953 48.1601Z" fill="#26C6DA"/>
<path d="M19.2917 46.7094C18.5497 45.9089 18.5992 44.6583 19.3907 43.9079C20.1821 43.1574 21.4188 43.2075 22.1607 44.0079C22.9027 44.8083 22.8533 46.059 22.0618 46.8094C21.6908 47.1596 21.1962 47.3347 20.7262 47.3347C20.2068 47.3347 19.6875 47.1096 19.2917 46.7094Z" fill="#26C6DA"/>
<path d="M16.0764 38.9302C15.1613 39.5055 14.8893 40.7311 15.4581 41.6566C15.8291 42.257 16.4474 42.5821 17.1152 42.5821C17.4615 42.5821 17.8325 42.4821 18.154 42.282C19.0691 41.7067 19.3412 40.481 18.7723 39.5555C18.2035 38.63 16.9916 38.3549 16.0764 38.9302Z" fill="#26C6DA"/>
<path d="M12.6138 35.9786C12.2181 34.953 12.7128 33.8024 13.7268 33.4272C14.7409 33.027 15.8539 33.5273 16.2496 34.5528C16.6453 35.5784 16.1506 36.729 15.1366 37.1042C14.914 37.2042 14.6667 37.2293 14.4193 37.2293C13.6526 37.2543 12.9106 36.779 12.6138 35.9786Z" fill="#26C6DA"/>
<path d="M12.4407 27.5741C11.3772 27.7742 10.6847 28.7997 10.8825 29.8753C11.0557 30.8258 11.8719 31.4762 12.787 31.4762C12.9106 31.4762 13.0343 31.4762 13.158 31.4512C14.2215 31.251 14.914 30.2255 14.7161 29.1499C14.5183 28.0743 13.5042 27.374 12.4407 27.5741Z" fill="#26C6DA"/>
<path d="M12.2676 25.523C11.1793 25.523 10.3137 24.6225 10.3384 23.5219C10.3384 22.4213 11.2288 21.5458 12.317 21.5708C13.4053 21.5708 14.2709 22.4713 14.2462 23.5719C14.2462 24.6475 13.3558 25.523 12.2676 25.523Z" fill="#26C6DA"/>
<path d="M11.0309 17.1685C10.8083 18.2441 11.4761 19.2946 12.5396 19.5197C12.6076 19.5335 12.6755 19.5397 12.7517 19.5466C12.8141 19.5523 12.8821 19.5585 12.9601 19.5698C13.8505 19.5698 14.6667 18.9194 14.8645 17.9939C15.0871 16.9183 14.4193 15.8678 13.3558 15.6427C12.2923 15.4175 11.2535 16.0929 11.0309 17.1685Z" fill="#26C6DA"/>
<path d="M13.9247 13.6916C12.9354 13.2664 12.4654 12.0907 12.8859 11.0902C13.3064 10.0897 14.4688 9.61441 15.4581 10.0396C16.4474 10.4649 16.9174 11.6405 16.4969 12.641C16.1754 13.3914 15.4581 13.8417 14.6914 13.8417C14.4441 13.8417 14.1967 13.7917 13.9247 13.6916Z" fill="#26C6DA"/>
<path d="M15.9281 5.48719C15.3345 6.38768 15.5571 7.61334 16.4474 8.23867C16.7937 8.46379 17.1647 8.58886 17.5604 8.56385C18.1787 8.56385 18.7971 8.26369 19.1681 7.71339C19.7617 6.81291 19.5391 5.58725 18.6487 4.96191C17.7583 4.36159 16.5464 4.58671 15.9281 5.48719Z" fill="#26C6DA"/>
<path d="M34.3291 56.1644C34.7001 56.5396 35.1948 56.7397 35.7142 56.7397C36.2088 56.7397 36.7282 56.5145 37.0992 56.1393C37.4702 55.7641 37.6681 55.2639 37.6681 54.7386C37.6681 54.2133 37.4702 53.713 37.0992 53.3378C37.0003 53.2378 36.9013 53.1627 36.8024 53.0877C36.7406 53.0627 36.6849 53.0314 36.6293 53.0002C36.5736 52.9689 36.518 52.9376 36.4561 52.9126C36.3943 52.9001 36.3325 52.8813 36.2706 52.8626C36.2088 52.8438 36.147 52.8251 36.0851 52.8126C35.4668 52.6875 34.7743 52.9126 34.3291 53.3629C33.9581 53.7381 33.7603 54.2383 33.7603 54.7636C33.7603 55.2889 33.9581 55.7892 34.3291 56.1644Z" fill="#26C6DA"/>
<path d="M1.58291 27.249C1.70657 27.274 1.83024 27.299 1.9539 27.299C2.04087 27.299 2.12783 27.2866 2.24061 27.2706C2.28819 27.2638 2.34039 27.2564 2.39909 27.249C2.52276 27.249 2.64642 27.1989 2.77009 27.1489C2.89375 27.0989 3.01742 27.0488 3.11635 26.9738C3.21528 26.8988 3.31421 26.8237 3.41314 26.7237C3.78414 26.3485 3.982 25.8482 3.982 25.3229C3.982 25.1979 3.95727 25.0728 3.93254 24.9477C3.9078 24.8226 3.85834 24.6976 3.80887 24.5725C3.75941 24.4474 3.70994 24.3224 3.63574 24.2223C3.56154 24.1223 3.48734 24.0222 3.38841 23.9222C3.28948 23.8221 3.19055 23.7471 3.09162 23.672C2.96795 23.597 2.86902 23.547 2.74536 23.4969C2.62169 23.4469 2.49803 23.4219 2.37436 23.3969C2.12703 23.3469 1.85497 23.3469 1.60764 23.3969C1.48398 23.4219 1.36031 23.4469 1.23665 23.4969C1.113 23.547 0.989306 23.597 0.890386 23.672C0.791454 23.7471 0.692522 23.8221 0.59359 23.9222C0.494659 24.0222 0.42046 24.1223 0.346261 24.2223C0.309162 24.2849 0.284429 24.3411 0.259696 24.3974C0.234965 24.4537 0.210227 24.51 0.173131 24.5725C0.0989317 24.6976 0.0741988 24.8226 0.0494659 24.9477C0.0247333 25.0728 0 25.1979 0 25.3229C0 25.8482 0.197863 26.3485 0.568857 26.7237C0.667789 26.8237 0.766721 26.8988 0.865653 26.9738C0.989317 27.0488 1.08825 27.0989 1.21191 27.1489C1.33558 27.1989 1.45924 27.2239 1.58291 27.249Z" fill="#26C6DA"/>
<path d="M39.7703 60.3167C38.6821 60.3417 37.8412 61.2422 37.8659 62.3428C37.8906 63.3933 38.781 64.2438 39.8198 64.2938H39.8693C40.9575 64.2438 41.7984 63.3433 41.7737 62.2427C41.749 61.1421 40.8586 60.2917 39.7703 60.3167Z" fill="#26C6DA"/>
<path d="M33.8097 63.8686C32.7462 63.6935 32.0042 62.6929 32.1773 61.6174C32.3505 60.5418 33.3398 59.7914 34.4033 59.9665C35.4668 60.1416 36.2088 61.1421 36.0357 62.2177C35.8873 63.1932 35.0463 63.8936 34.1065 63.8936C34.057 63.8936 34.0076 63.8873 33.9581 63.8811C33.9086 63.8748 33.8592 63.8686 33.8097 63.8686Z" fill="#26C6DA"/>
<path d="M45.0879 59.6163C44.0244 59.8664 43.3566 60.917 43.6039 61.9926C43.8018 62.8931 44.618 63.5184 45.5331 63.5434C45.6568 63.5434 45.8052 63.5184 45.9536 63.4934C47.0171 63.2432 47.6601 62.1927 47.4375 61.1171C47.1902 60.0415 46.1514 59.3662 45.0879 59.6163Z" fill="#26C6DA"/>
<path d="M27.8985 62.3678C26.8845 62.0176 26.3404 60.892 26.6866 59.8414C27.0329 58.8159 28.1459 58.2656 29.1846 58.6158C30.1987 58.9659 30.7428 60.0916 30.3966 61.1421C30.1245 61.9676 29.3578 62.4678 28.5416 62.4678C28.3437 62.4678 28.1211 62.4428 27.8985 62.3678Z" fill="#26C6DA"/>
<path d="M50.1829 57.9404C49.1936 58.3656 48.7484 59.5413 49.1688 60.5418C49.4904 61.2922 50.2076 61.7424 50.9744 61.7424C51.2217 61.7424 51.4937 61.6674 51.7411 61.5673C52.7304 61.1421 53.1756 59.9665 52.7551 58.9659C52.3347 57.9654 51.1722 57.5152 50.1829 57.9404Z" fill="#26C6DA"/>
<path d="M22.3831 59.8664C21.4432 59.3411 21.097 58.1405 21.6164 57.165C22.1358 56.2145 23.3229 55.8643 24.2875 56.3896C25.2274 56.9148 25.5736 58.1155 25.0542 59.091C24.708 59.7414 24.0155 60.1166 23.3477 60.1166C23.0014 60.1166 22.6799 60.0415 22.3831 59.8664Z" fill="#26C6DA"/>
<path d="M16.9913 53.7381C16.3235 54.6136 16.4719 55.8393 17.3376 56.5146C17.6838 56.7898 18.1043 56.9399 18.5495 56.9399C19.1183 56.9399 19.6872 56.6647 20.0829 56.1644C20.7507 55.314 20.5776 54.0633 19.7367 53.3879C18.8957 52.7126 17.6591 52.8627 16.9913 53.7381Z" fill="#26C6DA"/>
<path d="M12.8609 52.4374C12.1189 51.637 12.1437 50.3863 12.9104 49.6359C13.7018 48.8855 14.9385 48.9105 15.6805 49.686C16.4224 50.4614 16.3977 51.7371 15.631 52.4875C15.26 52.8627 14.7653 53.0378 14.2707 53.0378C13.7513 53.0378 13.2319 52.8377 12.8609 52.4374Z" fill="#26C6DA"/>
<path d="M9.47249 44.9834C8.58211 45.6338 8.38424 46.8844 9.0273 47.7599C9.39829 48.3102 9.99189 48.5854 10.6102 48.5854C11.0059 48.5854 11.4017 48.4603 11.7479 48.2102C12.6383 47.5598 12.8362 46.3091 12.1931 45.4337C11.5748 44.5332 10.3381 44.3331 9.47249 44.9834Z" fill="#26C6DA"/>
<path d="M5.83675 42.6572C5.31736 41.7067 5.66362 40.506 6.62821 39.9807C7.56806 39.4555 8.75524 39.8056 9.27463 40.7562C9.79402 41.7067 9.44776 42.9323 8.50791 43.4326C8.21111 43.6077 7.88959 43.6827 7.56806 43.6827C6.8508 43.6827 6.18301 43.3075 5.83675 42.6572Z" fill="#26C6DA"/>
<path d="M4.37751 34.6279C3.36346 35.0281 2.89353 36.1787 3.28926 37.2042C3.58606 37.9797 4.32804 38.4299 5.09476 38.4549C5.34209 38.4549 5.58942 38.4049 5.83675 38.3048C6.8508 37.9046 7.32073 36.754 6.925 35.7285C6.52927 34.7029 5.39156 34.2276 4.37751 34.6279Z" fill="#26C6DA"/>
<path d="M1.36009 31.5012C1.0633 30.4506 1.65689 29.35 2.69567 29.0499C3.73445 28.7497 4.8227 29.35 5.1195 30.4006C5.41629 31.4512 4.8227 32.5517 3.75919 32.8519C3.58606 32.9019 3.38819 32.9269 3.21506 32.9269C2.39887 32.952 1.60742 32.3767 1.36009 31.5012Z" fill="#26C6DA"/>
<path d="M56.02 58.941C55.8963 58.941 55.7726 58.941 55.6242 58.8909C55.5006 58.8659 55.3769 58.8409 55.2532 58.7659C55.1296 58.7158 55.0307 58.6658 54.907 58.5908C54.8081 58.5157 54.7091 58.4407 54.6102 58.3406C54.5113 58.2406 54.4371 58.1405 54.3629 58.0405C54.2887 57.9404 54.2392 57.8154 54.1897 57.6903C54.165 57.6278 54.1465 57.5653 54.1279 57.5028C54.1094 57.4404 54.0908 57.3776 54.0661 57.3151C54.0413 57.19 54.0166 57.065 54.0166 56.9399C54.0166 56.8148 54.0166 56.6898 54.0661 56.5397C54.0908 56.4146 54.1155 56.2895 54.1897 56.1645C54.2268 56.1019 54.2516 56.0457 54.2763 55.9894C54.301 55.9331 54.3258 55.8768 54.3629 55.8142C54.4371 55.7142 54.5113 55.6142 54.6102 55.5141C54.7091 55.4141 54.8081 55.339 54.907 55.264C55.0059 55.1889 55.1296 55.1389 55.2533 55.0889C55.3769 55.0389 55.5006 54.9888 55.6242 54.9638C56.2673 54.8388 56.9351 55.0389 57.3803 55.5141C57.4792 55.6142 57.5534 55.7142 57.6276 55.8143C57.7018 55.9143 57.7513 56.0394 57.8007 56.1645C57.8255 56.227 57.844 56.2896 57.8626 56.3521C57.8811 56.4146 57.8997 56.4771 57.9244 56.5397C57.9491 56.6647 57.9739 56.7898 57.9739 56.9399C57.9739 57.065 57.9491 57.19 57.9244 57.3151C57.8997 57.4402 57.8749 57.5652 57.8007 57.6903C57.7636 57.7528 57.7389 57.8091 57.7142 57.8654C57.6894 57.9217 57.6647 57.9779 57.6276 58.0405C57.5534 58.1405 57.4792 58.2406 57.3803 58.3406C57.2814 58.4407 57.1824 58.5158 57.0835 58.5908C56.9846 58.6658 56.8609 58.7158 56.7373 58.7659C56.6136 58.8159 56.4899 58.8659 56.3662 58.8909C56.2673 58.941 56.1436 58.941 56.02 58.941Z" fill="#26C6DA"/>
<path d="M115.305 40.3559C115.156 40.3559 115.033 40.3059 114.934 40.2058C114.835 40.1058 114.785 39.9807 114.785 39.8306C114.785 39.6806 114.835 39.5555 114.934 39.4554C115.033 39.3554 115.156 39.3054 115.305 39.3054H116.591C116.739 39.3054 116.863 39.3554 116.962 39.4554C117.061 39.5555 117.11 39.6806 117.11 39.8306C117.11 39.9807 117.061 40.1058 116.962 40.2058C116.863 40.3059 116.739 40.3559 116.591 40.3559H115.305Z" fill="#26C6DA"/>
<path d="M114.167 45.8089C114.068 45.7588 113.969 45.7088 113.92 45.6087C113.846 45.5087 113.821 45.4086 113.821 45.3086V41.3815C113.821 41.2314 113.87 41.1063 113.969 41.0063C114.068 40.9062 114.192 40.8562 114.34 40.8562C114.489 40.8562 114.612 40.9062 114.711 41.0063C114.81 41.1063 114.86 41.2314 114.86 41.3815V43.8578L117.184 41.0313C117.259 40.9562 117.333 40.8812 117.457 40.8562C117.555 40.8312 117.654 40.8312 117.778 40.8812C117.902 40.9312 117.976 40.9813 118.025 41.0813C118.1 41.1814 118.124 41.2814 118.124 41.3815V45.3086C118.124 45.4587 118.075 45.5837 117.976 45.6838C117.877 45.7838 117.753 45.8339 117.605 45.8339C117.457 45.8339 117.333 45.7838 117.234 45.6838C117.135 45.5837 117.086 45.4587 117.086 45.3086V42.8323L114.761 45.6588C114.662 45.7838 114.513 45.8589 114.365 45.8589C114.291 45.8589 114.217 45.8339 114.167 45.8089Z" fill="#26C6DA"/>
<path d="M83.9437 45.6087C83.9931 45.7088 84.0921 45.7588 84.191 45.8088C84.2405 45.8338 84.2899 45.8589 84.3889 45.8589C84.5373 45.8589 84.6856 45.7838 84.7846 45.6587L87.1095 42.8322V45.3086C87.1095 45.4586 87.1589 45.5837 87.2579 45.6838C87.3568 45.7838 87.4805 45.8338 87.6289 45.8338C87.7773 45.8338 87.9009 45.7838 87.9999 45.6838C88.0988 45.5837 88.1483 45.4586 88.1483 45.3086V41.3815C88.1483 41.2814 88.1235 41.1813 88.0493 41.0813C87.9751 40.9812 87.9009 40.9312 87.802 40.8812C87.6783 40.8312 87.5794 40.8312 87.4805 40.8562C87.3568 40.8812 87.2826 40.9562 87.2084 41.0313L84.8835 43.8578V41.3815C84.8835 41.2314 84.834 41.1063 84.7351 41.0062C84.6362 40.9062 84.5125 40.8562 84.3641 40.8562C84.2157 40.8562 84.0921 40.9062 83.9931 41.0062C83.8942 41.1063 83.8447 41.2314 83.8447 41.3815V45.3086C83.8447 45.4086 83.8695 45.5087 83.9437 45.6087Z" fill="#26C6DA"/>
<path d="M51.6175 41.9068C51.4691 41.9068 51.3455 41.8568 51.2465 41.7567C51.1476 41.6567 51.0981 41.5316 51.0981 41.3815C51.0981 41.2314 51.1476 41.1064 51.2465 41.0063C51.3455 40.9062 51.4691 40.8562 51.6175 40.8562H54.8575C55.0059 40.8562 55.1296 40.9062 55.2285 41.0063C55.3275 41.1064 55.3769 41.2314 55.3769 41.3815C55.3769 41.5316 55.3275 41.6567 55.2285 41.7567C55.1296 41.8568 55.0059 41.9068 54.8575 41.9068H53.7446V45.3086C53.7446 45.4587 53.6951 45.5838 53.5962 45.6838C53.4972 45.7839 53.3736 45.8339 53.2252 45.8339C53.0768 45.8339 52.9531 45.7839 52.8542 45.6838C52.7552 45.5838 52.7058 45.4587 52.7058 45.3086V41.9068H51.6175Z" fill="#26C6DA"/>
<path fill-rule="evenodd" clip-rule="evenodd" d="M39.8697 45.8589V45.9839C39.8697 46.134 39.9192 46.2591 40.0181 46.3591C40.117 46.4592 40.2407 46.5092 40.3891 46.5092C40.5375 46.5092 40.6612 46.4592 40.7601 46.3591C40.859 46.2591 40.9085 46.134 40.9085 45.9839V45.3336C40.9085 45.1835 40.859 45.0584 40.7601 44.9584C40.6612 44.8583 40.5375 44.8083 40.3891 44.8083L38.5836 41.1814C38.5341 41.0813 38.4599 41.0063 38.3857 40.9562C38.3115 40.9062 38.2126 40.8812 38.1137 40.8812C38.0147 40.8812 37.9158 40.9062 37.8416 40.9562C37.7427 41.0313 37.6932 41.0813 37.6437 41.1814L35.8382 44.8083C35.6898 44.8083 35.5662 44.8583 35.4672 44.9584C35.3683 45.0584 35.3188 45.1835 35.3188 45.3336V45.9839C35.3188 46.134 35.3683 46.2591 35.4672 46.3591C35.5662 46.4592 35.6898 46.5092 35.8382 46.5092C35.9866 46.5092 36.1103 46.4592 36.2092 46.3591C36.3082 46.2591 36.3576 46.134 36.3576 45.9839V45.8589H39.8697ZM39.2019 44.8083H37.0007L38.0889 42.5571L39.2019 44.8083Z" fill="#26C6DA"/>
<path fill-rule="evenodd" clip-rule="evenodd" d="M41.0073 43.3575C41.0073 42.6572 41.2547 42.0818 41.7246 41.6066C42.2192 41.1063 42.7881 40.8812 43.4559 40.8812C44.1484 40.8812 44.7173 41.1313 45.1872 41.6066C45.6818 42.0818 45.9044 42.6822 45.9044 43.3575C45.9044 44.0329 45.6571 44.6332 45.1872 45.1085C44.7173 45.5837 44.1237 45.8339 43.4559 45.8339C42.7881 45.8339 42.1945 45.5837 41.7246 45.1085C41.2299 44.6332 41.0073 44.0579 41.0073 43.3575ZM44.8904 43.3575C44.8904 42.9573 44.742 42.6321 44.4699 42.332C44.1979 42.0568 43.8516 41.9067 43.4559 41.9067C43.0602 41.9067 42.7386 42.0568 42.4418 42.332C42.1698 42.6071 42.0214 42.9573 42.0214 43.3575C42.0214 43.7577 42.1698 44.0829 42.4418 44.3831C42.7139 44.6832 43.0602 44.8083 43.4559 44.8083C43.8516 44.8083 44.1979 44.6582 44.4699 44.3831C44.742 44.1079 44.8904 43.7577 44.8904 43.3575Z" fill="#26C6DA"/>
<path d="M48.8724 45.8588C48.1799 45.8588 47.611 45.6087 47.1411 45.1334C46.6712 44.6582 46.4238 44.0579 46.4238 43.3825C46.4238 42.6821 46.6712 42.1068 47.1411 41.6316C47.611 41.1313 48.2046 40.9062 48.8724 40.9062C49.5649 40.9062 50.1338 41.1563 50.6037 41.6316C50.7026 41.7316 50.7521 41.8567 50.7521 42.0068C50.7521 42.1568 50.7026 42.2819 50.6037 42.382C50.5048 42.482 50.3811 42.5321 50.2327 42.5321C50.0843 42.5321 49.9606 42.482 49.8617 42.382C49.5896 42.1068 49.2434 41.9567 48.8477 41.9567C48.4519 41.9567 48.1304 42.1068 47.8336 42.382C47.5368 42.6571 47.4131 43.0073 47.4131 43.4075C47.4131 43.8077 47.5615 44.1329 47.8336 44.4331C48.1057 44.7332 48.4519 44.8583 48.8477 44.8583C49.2434 44.8583 49.5649 44.7082 49.8617 44.4331C49.9606 44.333 50.0843 44.283 50.2327 44.283C50.3811 44.283 50.5048 44.333 50.6037 44.4331C50.7026 44.5331 50.7521 44.6582 50.7521 44.8083C50.7521 44.9584 50.7026 45.0834 50.6037 45.1835C50.1338 45.6087 49.5649 45.8588 48.8724 45.8588Z" fill="#26C6DA"/>
<path fill-rule="evenodd" clip-rule="evenodd" d="M54.9563 45.4837C55.0058 45.6088 55.1047 45.7088 55.2284 45.7839C55.3521 45.8589 55.4757 45.8589 55.6241 45.8089C55.7478 45.7589 55.8467 45.6588 55.9209 45.5337L56.2672 44.8334H58.5426L58.8889 45.5337C58.9384 45.6338 59.0126 45.7088 59.0867 45.7589C59.1609 45.8089 59.2599 45.8339 59.3588 45.8339C59.433 45.8339 59.5072 45.8339 59.5814 45.7839C59.7298 45.7338 59.804 45.6338 59.8535 45.4837C59.9029 45.3336 59.9029 45.2086 59.8287 45.0835L57.8748 41.1564C57.8254 41.0563 57.7512 40.9813 57.677 40.9313C57.6028 40.8812 57.5038 40.8562 57.4049 40.8562C57.306 40.8562 57.207 40.8812 57.1328 40.9313C57.0339 41.0063 56.9844 41.0563 56.935 41.1564L54.9811 45.0835C54.9069 45.2086 54.9069 45.3586 54.9563 45.4837ZM57.4049 42.5571L58.0232 43.8078H56.7866L57.4049 42.5571Z" fill="#26C6DA"/>
<path fill-rule="evenodd" clip-rule="evenodd" d="M60.5708 45.7088C60.6697 45.8088 60.7934 45.8589 60.9418 45.8589V45.9089H63.1925C63.6129 45.9089 63.9592 45.7588 64.256 45.4587C64.5528 45.1585 64.7012 44.8083 64.7012 44.3831C64.7012 44.1079 64.627 43.8578 64.4786 43.6077C64.3302 43.3575 64.157 43.1824 63.9097 43.0574C64.0086 42.8322 64.0581 42.6321 64.0581 42.407C64.0581 41.9818 63.9097 41.6316 63.6129 41.3314C63.3161 41.0313 62.9699 40.8812 62.5494 40.8812H60.9418C60.7934 40.8812 60.6697 40.9312 60.5708 41.0313C60.4718 41.1313 60.4224 41.2564 60.4224 41.4065V45.3336C60.4224 45.4837 60.4718 45.6087 60.5708 45.7088ZM62.5741 42.8322H61.4611V41.9318H62.5741C62.6978 41.9318 62.7967 41.9568 62.8957 42.0568C62.9699 42.1569 63.0193 42.2569 63.0193 42.382C63.0193 42.5071 62.9946 42.6071 62.8957 42.7072C62.7967 42.7822 62.6978 42.8322 62.5741 42.8322ZM63.2172 44.8083H61.4611V43.9078H63.2172C63.3409 43.9078 63.4398 43.9328 63.5387 44.0329C63.6129 44.1329 63.6624 44.233 63.6624 44.3581C63.6624 44.4831 63.6376 44.5832 63.5387 44.6832C63.4398 44.7583 63.3409 44.8083 63.2172 44.8083Z" fill="#26C6DA"/>
<path d="M69.6725 41.2814C69.6478 41.1564 69.5736 41.0313 69.4499 40.9563C69.351 40.8812 69.2026 40.8562 69.0542 40.9062C68.9305 40.9312 68.8069 41.0063 68.7327 41.1313L67.595 42.8573H66.4572V41.4065C66.4572 41.2564 66.4078 41.1313 66.3088 41.0313C66.2099 40.9312 66.0863 40.8812 65.9379 40.8812C65.7895 40.8812 65.6658 40.9312 65.5669 41.0313C65.4679 41.1313 65.4185 41.2564 65.4185 41.4065V45.3336C65.4185 45.4837 65.4679 45.6088 65.5669 45.7088C65.6658 45.8089 65.7895 45.8589 65.9379 45.8589C66.0863 45.8589 66.2099 45.8089 66.3088 45.7088C66.4078 45.6088 66.4572 45.4837 66.4572 45.3336V43.8828H67.595L68.7327 45.6088C68.8316 45.7588 68.98 45.8339 69.1531 45.8339C69.2768 45.8339 69.351 45.8089 69.4499 45.7588C69.5736 45.6838 69.6478 45.5837 69.6725 45.4337C69.6973 45.2836 69.6725 45.1585 69.5983 45.0334L68.4853 43.3575L69.5983 41.6816C69.6725 41.5566 69.6973 41.4315 69.6725 41.2814Z" fill="#26C6DA"/>
<path fill-rule="evenodd" clip-rule="evenodd" d="M70.1424 45.4837C70.1918 45.6088 70.2908 45.7088 70.4145 45.7839C70.5381 45.8589 70.6618 45.8589 70.8102 45.8089C70.9338 45.7589 71.0328 45.6588 71.107 45.5337L71.4532 44.8334H73.7287L74.0749 45.5337C74.1244 45.6338 74.1986 45.7088 74.2728 45.7589C74.347 45.8089 74.4459 45.8339 74.5448 45.8339C74.619 45.8339 74.6932 45.8339 74.7674 45.7839C74.9158 45.7338 74.99 45.6338 75.0395 45.4837C75.089 45.3336 75.089 45.2086 75.0148 45.0835L73.0609 41.1564C73.0114 41.0563 72.9372 40.9813 72.863 40.9313C72.7888 40.8812 72.6899 40.8562 72.5909 40.8562C72.492 40.8562 72.3931 40.8812 72.3189 40.9313C72.2199 41.0063 72.1705 41.0563 72.121 41.1564L70.1671 45.0835C70.0929 45.2086 70.0929 45.3586 70.1424 45.4837ZM72.5662 42.5571L73.1845 43.8078H71.9479L72.5662 42.5571Z" fill="#26C6DA"/>
<path d="M82.6822 41.0063C82.5832 40.9062 82.4596 40.8562 82.3112 40.8562H79.0712C78.9228 40.8562 78.7991 40.9062 78.7002 41.0063C78.6012 41.1064 78.5518 41.2314 78.5518 41.3815V45.3086C78.5518 45.4587 78.6012 45.5838 78.7002 45.6838C78.7991 45.7839 78.9228 45.8339 79.0712 45.8339C79.2196 45.8339 79.3432 45.7839 79.4421 45.6838C79.5411 45.5838 79.5905 45.4587 79.5905 45.3086V41.9068H81.7918V45.3086C81.7918 45.4587 81.8412 45.5838 81.9402 45.6838C82.0391 45.7839 82.1628 45.8339 82.3112 45.8339C82.4596 45.8339 82.5832 45.7839 82.6822 45.6838C82.7811 45.5838 82.8306 45.4587 82.8306 45.3086V41.3815C82.8306 41.2314 82.7811 41.1064 82.6822 41.0063Z" fill="#26C6DA"/>
<path d="M89.1869 41.9068C89.0385 41.9068 88.9148 41.8568 88.8159 41.7567C88.7169 41.6567 88.6675 41.5316 88.6675 41.3815C88.6675 41.2314 88.7169 41.1064 88.8159 41.0063C88.9148 40.9062 89.0385 40.8562 89.1869 40.8562H92.4269C92.5753 40.8562 92.699 40.9062 92.7979 41.0063C92.8968 41.1064 92.9463 41.2314 92.9463 41.3815C92.9463 41.5316 92.8968 41.6567 92.7979 41.7567C92.699 41.8568 92.5753 41.9068 92.4269 41.9068H91.3139V45.3086C91.3139 45.4587 91.2644 45.5838 91.1655 45.6838C91.0666 45.7839 90.9429 45.8339 90.7945 45.8339C90.6461 45.8339 90.5225 45.7839 90.4235 45.6838C90.3246 45.5838 90.2751 45.4587 90.2751 45.3086V41.9068H89.1869Z" fill="#26C6DA"/>
<path fill-rule="evenodd" clip-rule="evenodd" d="M95.9635 42.1819C96.4582 42.1819 96.9034 42.357 97.2496 42.7322C97.5959 43.0823 97.7938 43.5326 97.7938 44.0329C97.7938 44.5331 97.6206 44.9584 97.2496 45.3336C96.9034 45.6837 96.4582 45.8839 95.9635 45.8839H94.0096C93.8612 45.8839 93.7376 45.8338 93.6386 45.7338C93.5397 45.6337 93.4902 45.5086 93.4902 45.3586V41.4315C93.4902 41.2814 93.5397 41.1563 93.6386 41.0563C93.7376 40.9562 93.8612 40.9062 94.0096 40.9062C94.158 40.9062 94.2817 40.9562 94.3806 41.0563C94.4796 41.1563 94.529 41.2814 94.529 41.4315V42.2069H95.9635V42.1819ZM95.9635 44.8083C96.1861 44.8083 96.3593 44.7332 96.5077 44.5832C96.6561 44.4331 96.7302 44.233 96.7302 44.0329C96.7302 43.8077 96.6561 43.6326 96.5077 43.4826C96.3593 43.3325 96.1614 43.2574 95.9635 43.2574H94.529V44.8333H95.9635V44.8083Z" fill="#26C6DA"/>
<path d="M98.9813 45.8589C98.8329 45.8589 98.7092 45.8088 98.6103 45.7088C98.5114 45.6087 98.4619 45.4837 98.4619 45.3336V41.4065C98.4619 41.2564 98.5114 41.1313 98.6103 41.0313C98.7092 40.9312 98.8329 40.8812 98.9813 40.8812H102.221C102.37 40.8812 102.493 40.9312 102.592 41.0313C102.691 41.1313 102.741 41.2564 102.741 41.4065C102.741 41.5566 102.691 41.6816 102.592 41.7817C102.493 41.8817 102.37 41.9318 102.221 41.9318H99.5007V42.8573H101.578C101.727 42.8573 101.85 42.9073 101.949 43.0073C102.048 43.1074 102.098 43.2325 102.098 43.3825C102.098 43.5326 102.048 43.6577 101.949 43.7577C101.85 43.8578 101.727 43.9078 101.578 43.9078H99.5007V44.8333H102.221C102.37 44.8333 102.493 44.8833 102.592 44.9834C102.691 45.0835 102.741 45.2085 102.741 45.3586C102.741 45.5087 102.691 45.6338 102.592 45.7338C102.493 45.8339 102.37 45.8839 102.221 45.8839H98.9813V45.8589Z" fill="#26C6DA"/>
<path fill-rule="evenodd" clip-rule="evenodd" d="M103.952 45.8589C103.804 45.8589 103.68 45.8088 103.581 45.7088C103.483 45.6087 103.433 45.4837 103.433 45.3336V41.4065C103.433 41.2564 103.483 41.1313 103.581 41.0313C103.68 40.9312 103.804 40.8812 103.952 40.8812H105.56C105.981 40.8812 106.327 41.0313 106.624 41.3314C106.92 41.6316 107.069 41.9818 107.069 42.407C107.069 42.6321 107.019 42.8322 106.92 43.0574C107.168 43.1824 107.341 43.3575 107.489 43.6077C107.638 43.8578 107.712 44.1079 107.712 44.3831C107.712 44.8083 107.564 45.1585 107.267 45.4587C106.97 45.7588 106.624 45.9089 106.203 45.9089H103.952V45.8589ZM104.472 42.8322H105.585C105.709 42.8322 105.807 42.7822 105.906 42.7072C106.005 42.6071 106.03 42.5071 106.03 42.382C106.03 42.2569 105.981 42.1569 105.906 42.0568C105.807 41.9568 105.709 41.9318 105.585 41.9318H104.472V42.8322ZM104.472 44.8083H106.228C106.352 44.8083 106.451 44.7583 106.549 44.6832C106.648 44.5832 106.673 44.4831 106.673 44.3581C106.673 44.233 106.624 44.1329 106.549 44.0329C106.451 43.9328 106.352 43.9078 106.228 43.9078H104.472V44.8083Z" fill="#26C6DA"/>
<path fill-rule="evenodd" clip-rule="evenodd" d="M108.157 43.3575C108.157 42.6572 108.405 42.0818 108.874 41.6066C109.369 41.1063 109.938 40.8812 110.606 40.8812C111.298 40.8812 111.867 41.1313 112.337 41.6066C112.832 42.0818 113.054 42.6822 113.054 43.3575C113.054 44.0329 112.807 44.6332 112.337 45.1085C111.867 45.5837 111.274 45.8339 110.606 45.8339C109.938 45.8339 109.344 45.5837 108.874 45.1085C108.38 44.6332 108.157 44.0579 108.157 43.3575ZM112.04 43.3575C112.04 42.9573 111.892 42.6321 111.62 42.332C111.348 42.0568 111.002 41.9067 110.606 41.9067C110.21 41.9067 109.889 42.0568 109.592 42.332C109.32 42.6071 109.171 42.9573 109.171 43.3575C109.171 43.7577 109.32 44.0829 109.592 44.3831C109.864 44.6832 110.21 44.8083 110.606 44.8083C111.002 44.8083 111.323 44.6582 111.62 44.3831C111.892 44.1079 112.04 43.7577 112.04 43.3575Z" fill="#26C6DA"/>
<path fill-rule="evenodd" clip-rule="evenodd" d="M122.131 45.7088C122.23 45.8088 122.354 45.8589 122.502 45.8589V45.9089H124.753C125.173 45.9089 125.52 45.7588 125.817 45.4587C126.113 45.1585 126.262 44.8083 126.262 44.3831C126.262 44.1079 126.188 43.8578 126.039 43.6077C125.891 43.3575 125.718 43.1824 125.47 43.0574C125.569 42.8322 125.619 42.6321 125.619 42.407C125.619 41.9818 125.47 41.6316 125.173 41.3314C124.877 41.0313 124.53 40.8812 124.11 40.8812H122.502C122.354 40.8812 122.23 40.9312 122.131 41.0313C122.032 41.1313 121.983 41.2564 121.983 41.4065V45.3336C121.983 45.4837 122.032 45.6087 122.131 45.7088ZM124.135 42.8322H123.022V41.9318H124.135C124.258 41.9318 124.357 41.9568 124.456 42.0568C124.53 42.1569 124.58 42.2569 124.58 42.382C124.58 42.5071 124.555 42.6071 124.456 42.7072C124.357 42.7822 124.258 42.8322 124.135 42.8322ZM124.778 44.8083H123.022V43.9078H124.778C124.901 43.9078 125 43.9328 125.099 44.0329C125.173 44.1329 125.223 44.233 125.223 44.3581C125.223 44.4831 125.198 44.5832 125.099 44.6832C125 44.7583 124.901 44.8083 124.778 44.8083Z" fill="#26C6DA"/>
<path fill-rule="evenodd" clip-rule="evenodd" d="M127.424 41.6066C126.954 42.0818 126.707 42.6572 126.707 43.3575C126.707 44.0579 126.954 44.6332 127.424 45.1085C127.894 45.5837 128.488 45.8339 129.156 45.8339C129.823 45.8339 130.417 45.5837 130.887 45.1085C131.357 44.6332 131.604 44.0329 131.604 43.3575C131.604 42.6822 131.382 42.0818 130.887 41.6066C130.417 41.1313 129.848 40.8812 129.156 40.8812C128.488 40.8812 127.919 41.1063 127.424 41.6066ZM130.17 42.332C130.442 42.6321 130.59 42.9573 130.59 43.3575C130.59 43.7577 130.466 44.1079 130.17 44.3831C129.898 44.6582 129.551 44.8083 129.156 44.8083C128.76 44.8083 128.414 44.6832 128.142 44.3831C127.869 44.0829 127.721 43.7577 127.721 43.3575C127.721 42.9573 127.869 42.6071 128.142 42.332C128.438 42.0568 128.76 41.9067 129.156 41.9067C129.551 41.9067 129.898 42.0568 130.17 42.332Z" fill="#26C6DA"/>
<path fill-rule="evenodd" clip-rule="evenodd" d="M132.791 45.9839V45.8589H136.303V45.9839C136.303 46.134 136.353 46.2591 136.452 46.3591C136.551 46.4592 136.674 46.5092 136.823 46.5092C136.971 46.5092 137.095 46.4592 137.194 46.3591C137.293 46.2591 137.342 46.134 137.342 45.9839V45.3336C137.342 45.1835 137.293 45.0584 137.194 44.9584C137.095 44.8583 136.971 44.8083 136.823 44.8083L135.017 41.1814C134.968 41.0813 134.894 41.0063 134.819 40.9562C134.745 40.9062 134.646 40.8812 134.547 40.8812C134.448 40.8812 134.349 40.9062 134.275 40.9562C134.176 41.0313 134.127 41.0813 134.077 41.1814L132.272 44.8083C132.123 44.8083 132 44.8583 131.901 44.9584C131.802 45.0584 131.752 45.1835 131.752 45.3336V45.9839C131.752 46.134 131.802 46.2591 131.901 46.3591C132 46.4592 132.123 46.5092 132.272 46.5092C132.42 46.5092 132.544 46.4592 132.643 46.3591C132.742 46.2591 132.791 46.134 132.791 45.9839ZM135.636 44.8083H133.434L134.523 42.5821L135.636 44.8083Z" fill="#26C6DA"/>
<path fill-rule="evenodd" clip-rule="evenodd" d="M141.621 42.7322C141.274 42.357 140.829 42.1819 140.335 42.1819V42.207H138.9V41.4315C138.9 41.2814 138.851 41.1564 138.752 41.0563C138.653 40.9563 138.529 40.9062 138.381 40.9062C138.232 40.9062 138.109 40.9563 138.01 41.0563C137.911 41.1564 137.861 41.2814 137.861 41.4315V45.3586C137.861 45.5087 137.911 45.6338 138.01 45.7338C138.109 45.8339 138.232 45.8839 138.381 45.8839H140.335C140.829 45.8839 141.274 45.6838 141.621 45.3336C141.992 44.9584 142.165 44.5332 142.165 44.0329C142.165 43.5327 141.967 43.1074 141.621 42.7322ZM140.879 44.5832C140.73 44.7333 140.557 44.8083 140.335 44.8083V44.8334H138.9V43.2575H140.335C140.532 43.2575 140.73 43.3326 140.879 43.4826C141.027 43.6327 141.101 43.8078 141.101 44.0329C141.101 44.233 141.027 44.4331 140.879 44.5832Z" fill="#26C6DA"/>
<path d="M142.66 41.3815C142.66 41.2314 142.709 41.1064 142.808 41.0063C142.907 40.9062 143.031 40.8562 143.179 40.8562C143.327 40.8562 143.451 40.9062 143.55 41.0063C143.649 41.1064 143.698 41.2314 143.698 41.3815V45.3086C143.698 45.4587 143.649 45.5838 143.55 45.6838C143.451 45.7839 143.327 45.8339 143.179 45.8339C143.031 45.8339 142.907 45.7839 142.808 45.6838C142.709 45.5838 142.66 45.4587 142.66 45.3086V41.3815Z" fill="#26C6DA"/>
</svg>
